<svg width="158" height="230" viewBox="0 0 158 230" fill="none" xmlns="http://www.w3.org/2000/svg">
<path d="M145.441 208.179H18.5718C3.04754 194.766 -3.6752 171.486 1.98606 151.787C7.29902 133.355 22.3976 117.394 21.4632 98.232C20.6616 81.6849 7.75236 67.0397 8.99629 50.5204C9.32704 46.1261 10.6674 41.8675 12.913 38.0759C15.1587 34.2844 18.249 31.0622 21.9435 28.6602C25.6379 26.2582 29.8369 24.7412 34.2135 24.2273C38.59 23.7133 43.0262 24.2163 47.1766 25.6971C55.37 28.6217 61.7721 35.0956 67.3393 41.7631C72.9066 48.4305 78.0648 55.6288 84.981 60.9196C91.8973 66.2104 101.147 69.3783 109.39 66.603C115.88 64.4247 121.055 58.863 127.816 57.7849C136.319 56.4415 144.535 63.1034 147.553 71.1641C150.572 79.2247 149.499 88.2252 147.609 96.6231C145.718 105.021 143.031 113.347 142.904 121.955C142.777 131.818 146.039 141.382 149.45 150.637C152.861 159.892 156.499 169.247 157.19 179.087C157.881 188.928 152.982 201.804 145.441 208.179Z" fill="#FFD3B6"/>
<path d="M99.4989 55.7504C105.647 57.1657 112.469 57.2541 117.876 53.9978C123.648 50.5259 126.849 43.593 126.722 36.8592C126.594 30.1254 123.515 23.6736 119.087 18.6149C114.658 13.5563 108.958 9.72499 103.054 6.51842C97.9786 3.75413 92.6103 1.39896 86.9159 0.436988C77.2022 -1.1663 64.8845 1.36026 63.5908 12.7436C63.1103 17.78 63.9387 22.8551 65.9958 27.4772C69.9665 36.4847 76.4925 44.1294 84.7653 49.4644C89.2765 52.3951 94.2615 54.5219 99.4989 55.7504Z" fill="#FFD3B6"/>
<path d="M8.33838 211.203C8.33838 211.601 8.41689 211.996 8.56942 212.364C8.72195 212.733 8.94552 213.067 9.22736 213.349C9.50921 213.631 9.8438 213.854 10.2121 214.007C10.5803 214.159 10.975 214.238 11.3736 214.238H19.3458C21.1369 214.243 22.9081 214.614 24.5508 215.328C26.1935 216.042 27.6732 217.084 28.8991 218.39L29.3304 218.849C30.5593 220.148 32.0403 221.183 33.683 221.89C35.3256 222.598 37.0953 222.962 38.8838 222.962H48.8905C52.2165 222.961 55.419 224.222 57.8523 226.489C60.2887 228.75 63.4906 230.004 66.8141 230H97.553C100.877 229.999 104.077 228.739 106.509 226.473C108.944 224.207 112.146 222.947 115.471 222.945H125.483C127.272 222.945 129.041 222.581 130.684 221.873C132.327 221.166 133.808 220.131 135.037 218.832L135.468 218.373C136.697 217.073 138.177 216.037 139.82 215.329C141.463 214.621 143.233 214.255 145.021 214.255H152.982C153.787 214.255 154.559 213.935 155.129 213.366C155.698 212.796 156.018 212.024 156.018 211.219C156.018 210.414 155.698 209.642 155.129 209.073C154.559 208.504 153.787 208.184 152.982 208.184H11.3736C10.5714 208.184 9.80194 208.502 9.2332 209.067C8.66447 209.633 8.34276 210.401 8.33838 211.203Z" fill="#422C4F"/>
<path d="M68.7436 68.35C66.3186 68.5831 63.8733 68.2215 61.6194 67.2966C59.3656 66.3717 57.3712 64.9114 55.809 63.042C54.2467 61.1726 53.1637 58.9506 52.6537 56.5684C52.1437 54.1862 52.2221 51.7155 52.8821 49.3704C51.9486 48.5744 51.1952 47.589 50.6719 46.4794C50.1486 45.3699 49.8674 44.1617 49.8469 42.9351C49.8475 41.7144 50.1104 40.508 50.6179 39.3977C51.1253 38.2875 51.8655 37.2992 52.7881 36.4999C51.0522 32.8621 51.887 28.1186 54.2974 24.8899C55.525 23.285 57.1583 22.0364 59.0289 21.2726C60.8995 20.5088 62.9399 20.2575 64.9399 20.5444C66.4658 17.4429 69.7387 14.6952 73.1277 14.0373C74.8326 13.7207 76.5871 13.7971 78.2579 14.2608C79.9288 14.7245 81.4718 15.5632 82.7696 16.7131C84.2873 15.692 86.0097 15.0145 87.8164 14.7281C89.623 14.4416 91.4705 14.553 93.2296 15.0545C94.9555 15.5676 96.5455 16.4584 97.8843 17.6623C99.223 18.8662 100.277 20.3531 100.97 22.015C104.939 21.534 109.428 23.4967 111.667 26.8083C112.769 28.4849 113.399 30.4274 113.49 32.4314C113.581 34.4355 113.131 36.4272 112.187 38.1972C113.856 39.3205 115.22 40.8402 116.158 42.6202C117.095 44.4003 117.576 46.385 117.558 48.3967C117.54 50.4084 117.023 52.3842 116.054 54.1471C115.085 55.91 113.694 57.405 112.005 58.4981C113.188 62.6832 111.397 67.6313 107.947 70.2739C106.192 71.574 104.096 72.3339 101.916 72.4606C99.7363 72.5873 97.5666 72.0752 95.6733 70.9871C93.9815 73.4031 90.9574 74.4923 88.0162 74.2324C86.545 74.0829 85.1371 73.5567 83.9285 72.7044C82.7199 71.8522 81.7514 70.7029 81.1165 69.3673C80.4227 70.257 79.5291 70.9708 78.5081 71.4511C77.4872 71.9313 76.3675 72.1644 75.2397 72.1315C73.0172 71.9878 69.8548 70.2242 68.7436 68.35Z" fill="#422C4F"/>
<path d="M55.4804 25.9348C56.7961 24.5665 58.4524 23.5733 60.2792 23.0573C62.1059 22.5413 64.0371 22.5213 65.8742 22.9991C66.8306 19.7483 69.8382 17.4152 73.1442 16.6634C74.8063 16.3053 76.533 16.3867 78.1541 16.8996C79.7751 17.4124 81.2344 18.339 82.388 19.588C85.1477 17.9486 88.3611 17.2393 91.5544 17.5645C94.6394 17.9847 98.7416 19.7759 100.953 21.9874C100.26 20.3254 99.2064 18.8386 97.8676 17.6346C96.5288 16.4307 94.9388 15.5399 93.213 15.0269C91.4538 14.5254 89.6064 14.414 87.7997 14.7004C85.993 14.9869 84.2706 15.6644 82.7529 16.6855C81.4552 15.5373 79.9129 14.7001 78.2432 14.2374C76.5734 13.7747 74.8201 13.6987 73.1166 14.0152C69.7276 14.6731 66.4547 17.4208 64.9288 20.5223C62.9284 20.2399 60.889 20.4957 59.0204 21.2633C57.1517 22.031 55.5214 23.2828 54.2973 24.8899C51.8869 28.1241 51.0521 32.8676 52.788 36.4999C51.5552 32.9339 52.9152 28.6991 55.4804 25.9348Z" fill="#5B456B"/>
<path d="M112.154 38.1585C115.543 44.8978 115.001 52.7594 108.936 56.8616C109.346 58.6492 109.22 60.518 108.573 62.2341C107.926 63.9501 106.787 65.4372 105.299 66.509C103.776 67.5078 101.991 68.0317 100.17 68.0139C98.3486 67.9962 96.5738 67.4378 95.0708 66.4095C91.5047 68.422 87.3852 69.2323 83.3226 68.7204C79.0314 68.0506 75.0426 66.1005 71.8784 63.1255C69.7652 63.7035 67.5493 63.8004 65.3938 63.4091C63.2382 63.0178 61.1977 62.1482 59.4225 60.8643C55.9008 58.2825 52.9983 53.738 52.8657 49.3704C52.2057 51.7155 52.1273 54.1862 52.6373 56.5684C53.1473 58.9506 54.2303 61.1726 55.7925 63.042C57.3548 64.9114 59.3492 66.3717 61.603 67.2966C63.8568 68.2215 66.3021 68.5831 68.7271 68.35C69.8329 70.2353 73.0007 71.9878 75.19 72.115C76.3178 72.1478 77.4375 71.9147 78.4585 71.4345C79.4795 70.9543 80.3731 70.2404 81.0669 69.3507C81.7018 70.6863 82.6703 71.8357 83.8789 72.6879C85.0875 73.5401 86.4953 74.0663 87.9666 74.2158C90.9078 74.4757 93.9319 73.3866 95.6236 70.9706C97.517 72.0586 99.6867 72.5707 101.867 72.444C104.047 72.3173 106.143 71.5574 107.897 70.2574C111.347 67.6147 113.138 62.6666 111.955 58.4815C113.644 57.3884 115.035 55.8934 116.004 54.1305C116.974 52.3676 117.49 50.3918 117.509 48.3801C117.527 46.3684 117.045 44.3837 116.108 42.6036C115.171 40.8236 113.806 39.3039 112.137 38.1806L112.154 38.1585Z" fill="#2E2138"/>
<path d="M106.731 39.9276C106.312 38.1919 105.37 36.6268 104.033 35.4439C103.704 35.1592 103.353 34.9021 102.982 34.6755C103.218 33.0859 103.028 31.4621 102.429 29.9706C101.672 27.954 100.257 26.2513 98.4139 25.137C96.5704 24.0226 94.4053 23.5617 92.2678 23.8284C90.446 24.0146 88.7259 24.7579 87.3418 25.9569C88.909 25.268 90.6057 24.923 92.3175 24.9452C94.1937 24.9296 96.0378 25.4325 97.6464 26.3982C99.2551 27.364 100.566 28.7552 101.434 30.4185C102.126 31.6944 102.578 33.0868 102.767 34.5262C101.679 33.8932 100.469 33.501 99.2172 33.3762C97.6957 33.2061 96.1577 33.4868 94.7943 34.1834C96.207 33.9394 97.6541 33.9789 99.0513 34.2995C100.581 34.641 102.004 35.3508 103.198 36.3672C104.367 37.4096 105.267 38.718 105.824 40.1819C106.334 41.5224 106.574 42.9502 106.531 44.3836C107.027 42.9487 107.096 41.401 106.731 39.9276Z" fill="#5B456B"/>
<path d="M77.0419 25.0225C75.3034 24.5255 73.4538 24.5774 71.7458 25.1711C70.0379 25.7648 68.5549 26.8714 67.4996 28.3397C66.6375 29.4978 66.0977 30.8636 65.935 32.2982C64.507 32.4217 63.1347 32.9101 61.9497 33.7165C60.7647 34.523 59.8069 35.6204 59.168 36.9035C58.4872 38.2035 58.19 39.6703 58.3111 41.1328C58.6187 39.7818 59.1816 38.502 59.9696 37.3623C60.7993 36.0994 61.9252 35.0583 63.2491 34.3299C64.5731 33.6014 66.055 33.2076 67.5659 33.1827C68.947 33.1461 70.3223 33.3732 71.6184 33.8517C70.4536 32.9595 69.0602 32.4151 67.5991 32.2816C67.0786 32.2345 66.555 32.2345 66.0345 32.2816C66.5681 31.0529 67.317 29.9295 68.2459 28.9644C69.3249 27.7963 70.6758 26.913 72.1786 26.3931C73.6814 25.8732 75.2893 25.7329 76.8595 25.9845C78.2966 26.1973 79.6797 26.6834 80.934 27.4164C79.8939 26.2607 78.5425 25.4295 77.0419 25.0225Z" fill="#5B456B"/>
<path d="M131.421 166.04L122.719 81.8342H106.863C105.71 85.0678 103.534 87.8374 100.666 89.7235C99.1071 90.7202 97.3374 91.3392 95.4974 91.5311C93.6574 91.7231 91.798 91.4827 90.0673 90.8292C88.4995 90.1767 87.1066 89.1655 86.0005 87.877C84.8943 86.5884 84.1059 85.0584 83.6984 83.4098H73.2494C69.4985 83.4092 65.8553 84.6642 62.9005 86.9747C59.9458 89.2852 57.8494 92.5183 56.9456 96.1587L50.9084 120.484L64.459 126.92L60.1025 166.04H131.421Z" fill="#6CA8BF"/>
<path d="M76.4835 107.818C76.4835 107.818 74.1837 93.4774 78.8166 83.4264H74.4269C69.794 93.4774 72.0884 107.818 72.0884 107.818H76.4835Z" fill="#495375"/>
<path d="M113.276 106.21C113.276 106.21 110.965 91.8741 115.609 81.8342H111.219C106.586 91.8851 108.886 106.221 108.886 106.221L113.276 106.21Z" fill="#495375"/>
<path d="M108.887 106.21H113.276C113.276 106.21 113.033 104.678 112.867 102.268L108.533 103.047C108.693 104.999 108.887 106.21 108.887 106.21Z" fill="#422C4F"/>
<path d="M71.7124 104.059C71.8783 106.359 72.1105 107.813 72.1105 107.813H76.5057C76.5057 107.813 76.2901 106.481 76.1297 104.358C74.6523 104.355 73.1767 104.255 71.7124 104.059Z" fill="#422C4F"/>
<path d="M60.1023 166.04L66.0676 112.385C68.2127 111.462 69.7994 108.979 70.5845 107.503C70.765 107.166 71.04 106.888 71.3758 106.705C71.7116 106.521 72.0937 106.439 72.4752 106.47C84.0134 107.36 103.85 106.243 113.265 104.573C113.669 104.502 114.085 104.559 114.455 104.737C114.825 104.914 115.13 105.203 115.327 105.563C118.462 111.318 122.476 115.514 126.384 117.477L131.421 166.04H60.1023Z" fill="#495375"/>
<path d="M119.645 111.888C121.512 114.173 123.807 116.071 126.401 117.477L131.421 166.04L124.057 94.8097L121.077 103.948C120.242 106.518 119.76 109.188 119.645 111.888Z" fill="#468097"/>
<path d="M62.7506 142.273L60.1079 166.04L62.7506 142.273Z" fill="white"/>
<path d="M119.645 111.888C119.618 112.534 119.601 113.181 119.618 113.828L119.966 130.696L101.628 122.641L86.7004 129.22L62.7562 142.273L60.1135 166.045H131.421L126.407 117.482C123.81 116.076 121.513 114.175 119.645 111.888Z" fill="#422C4F"/>
<path d="M75.9972 111.047L72.7409 110.837C72.6185 110.83 72.4988 110.799 72.3887 110.745C72.2786 110.691 72.1803 110.616 72.0995 110.524C72.0187 110.432 71.9571 110.325 71.9182 110.209C71.8793 110.092 71.8639 109.97 71.8729 109.847C71.8799 109.725 71.9111 109.605 71.9649 109.495C72.0186 109.385 72.0937 109.287 72.1858 109.206C72.2779 109.125 72.3852 109.064 72.5014 109.025C72.6175 108.986 72.7403 108.971 72.8625 108.98L76.1188 109.184C76.2409 109.192 76.3602 109.224 76.47 109.278C76.5797 109.331 76.6778 109.407 76.7584 109.499C76.8391 109.59 76.9008 109.697 76.94 109.813C76.9792 109.929 76.9951 110.052 76.9868 110.174C76.9712 110.421 76.8582 110.651 76.6727 110.815C76.4871 110.979 76.2442 111.062 75.9972 111.047Z" fill="#797C99"/>
<path d="M109.727 109.477L112.983 109.273C113.231 109.255 113.461 109.141 113.625 108.955C113.789 108.768 113.872 108.525 113.857 108.277C113.84 108.03 113.725 107.8 113.539 107.637C113.352 107.475 113.109 107.393 112.861 107.409L109.611 107.614C109.488 107.622 109.368 107.654 109.257 107.708C109.147 107.762 109.048 107.838 108.967 107.93C108.886 108.023 108.824 108.13 108.785 108.247C108.745 108.363 108.729 108.486 108.737 108.609C108.745 108.731 108.777 108.85 108.831 108.96C108.885 109.07 108.96 109.168 109.052 109.249C109.144 109.329 109.251 109.391 109.366 109.43C109.482 109.469 109.605 109.485 109.727 109.477Z" fill="#797C99"/>
<path d="M64.4588 126.931L67.9031 95.9707C65.6775 97.8045 64.1589 100.355 63.6074 103.186L59.4443 124.553L64.4588 126.931Z" fill="#468097"/>
<path d="M107.709 86.7657C106.448 88.9202 104.667 90.7241 102.529 92.0123C100.194 93.4071 97.5069 94.1 94.7887 94.0081C92.0508 93.9243 89.3825 93.1257 87.0487 91.6917C84.9182 90.3709 83.0557 88.6603 81.5588 86.6496C82.2648 88.619 83.3911 90.4111 84.8595 91.9014C86.3279 93.3918 88.1031 94.5445 90.0618 95.2797C91.5491 95.8364 93.1183 96.1428 94.7058 96.1864C96.299 96.2348 97.8887 96.0085 99.4051 95.5174C100.872 95.0476 102.241 94.3151 103.446 93.3557C105.581 91.7126 107.086 89.3861 107.709 86.7657Z" fill="#468097"/>
<path d="M103.745 97.7123C102.384 98.0758 101.004 98.36 99.6098 98.5637C96.4851 99.0121 93.307 98.9261 90.2112 98.3094C88.8312 98.0328 87.4687 97.6747 86.1311 97.2368C87.3146 98.0799 88.6196 98.738 90.0011 99.1884C91.5784 99.7085 93.2227 99.9972 94.8828 100.045C96.5416 100.089 98.1977 99.8877 99.7977 99.4482C101.194 99.072 102.524 98.4867 103.745 97.7123Z" fill="#468097"/>
<path d="M90.0672 90.8402C91.7978 91.4938 93.6572 91.7341 95.4972 91.5422C97.3372 91.3502 99.1069 90.7312 100.665 89.7345C103.536 87.8456 105.712 85.0718 106.863 81.8342H103.032L96.1541 62.158L84.3783 76.8585L86.7168 83.4485H83.6982C84.1096 85.0921 84.8998 86.6166 86.0057 87.9001C87.1116 89.1836 88.5025 90.1905 90.0672 90.8402Z" fill="#BD6C67"/>
<path d="M91.6153 79.3519C93.8008 77.6742 95.3586 75.3103 96.0382 72.6402C96.7083 69.9801 96.8343 67.2121 96.4086 64.5021C96.3091 63.7613 96.1819 63.0205 96.0326 62.2907L84.3784 76.8585L85.9043 81.1542C87.9558 81.2081 89.9663 80.5736 91.6153 79.3519Z" fill="#422C4F"/>
<path d="M150.909 138.685L146.011 125.394L127.689 129.966L150.909 138.685Z" fill="#A64F5A"/>
<path d="M146.011 125.394L146.862 127.699L136.634 133.327L127.689 129.966L146.011 125.394Z" fill="#422C4F"/>
<path d="M122.946 81.8342H122.719L120.917 87.219C119.192 92.4216 119.036 98.0167 120.469 103.307L127.656 129.966L150.213 124.332L138.779 92.8913C137.592 89.6476 135.436 86.8472 132.604 84.8694C129.772 82.8917 126.4 81.8321 122.946 81.8342Z" fill="#6CA8BF"/>
<path d="M146.619 120.534C143.982 120.988 140.643 121.822 137.32 122.746C133.997 123.669 130.686 124.647 128.203 125.604C134.612 125.121 140.866 123.399 146.619 120.534Z" fill="#468097"/>
<path d="M85.1634 91.4816C83.1827 91.1788 81.1627 91.6739 79.5464 92.8582L80.4586 100.548L88.1212 98.6742L85.1634 91.4816Z" fill="#CC6164"/>
<path d="M84.2014 97.0765C83.874 97.1571 83.5332 97.1683 83.2012 97.1092C82.8691 97.0502 82.5531 96.9224 82.2734 96.7338C81.9938 96.5453 81.7567 96.3003 81.5774 96.0147C81.3982 95.729 81.2807 95.4089 81.2326 95.0751L80.8124 92.1063C80.3661 92.3135 79.9419 92.5654 79.5464 92.8582L80.4586 100.548L88.1212 98.6742L87.2532 96.5678C86.2254 96.6668 85.2058 96.8368 84.2014 97.0765Z" fill="#A34262"/>
<path d="M94.8605 107.376C94.8605 107.376 103.093 121.026 107.167 135.019C107.333 135.592 107.382 136.193 107.309 136.786C107.237 137.378 107.046 137.95 106.747 138.467C106.448 138.983 106.047 139.434 105.569 139.791C105.091 140.149 104.546 140.406 103.966 140.548L91.466 143.605C90.3305 143.884 89.1306 143.703 88.1288 143.1C87.1269 142.497 86.4046 141.521 86.1198 140.387C84.1959 132.763 81.028 118.273 80.3425 110.682C78.413 110.035 77.2023 107.586 77.2078 105.546C77.2527 104.527 77.5152 103.529 77.9777 102.619C78.4401 101.709 79.0919 100.909 79.8891 100.272C81.502 99.0051 83.3998 98.1511 85.4177 97.7841C87.7563 97.2755 90.3547 97.2313 92.3892 98.4862C94.9324 100.078 96.2648 104.706 94.8605 107.376Z" fill="#F4D071"/>
<path d="M90.7196 139.702C88.8012 132.072 84.019 116.233 83.3389 108.67C81.4095 108.023 80.1932 105.574 80.2042 103.534C80.265 101.748 81.0138 100.054 82.294 98.8069C81.4283 99.1906 80.6192 99.691 79.8891 100.294C79.0919 100.931 78.4401 101.731 77.9776 102.641C77.5152 103.551 77.2527 104.549 77.2078 105.568C77.2078 107.608 78.413 110.058 80.3425 110.704C81.028 118.267 84.2125 132.786 86.1198 140.409C86.4046 141.544 87.1269 142.519 88.1288 143.122C89.1306 143.725 90.3305 143.906 91.4659 143.627L94.175 142.964C93.3483 142.805 92.5841 142.414 91.972 141.836C91.36 141.258 90.9255 140.518 90.7196 139.702Z" fill="#ECA85E"/>
<path d="M112.95 123.99L104.502 113.485C103.643 112.405 102.498 111.589 101.196 111.129C99.8951 110.67 98.4907 110.586 97.1439 110.887C92.7912 111.87 88.7295 113.86 85.2851 116.697C84.5222 117.333 83.7537 118.063 83.6818 119.119C83.6636 119.347 83.6969 119.576 83.7792 119.789C83.8615 120.003 83.9907 120.195 84.1573 120.352C84.8152 120.938 85.6279 120.656 86.33 120.352L96.6795 116.216C92.8095 117.963 88.8953 119.744 85.5947 122.414C84.8981 122.967 84.2015 123.625 84.0633 124.565C84.0261 124.788 84.0401 125.017 84.1043 125.235C84.1684 125.452 84.2811 125.652 84.4337 125.82C85.1248 126.538 86.1697 126.184 87.0101 125.82L91.256 123.956L99.6429 120.274L89.4647 125.51C88.6914 125.852 87.9841 126.327 87.3749 126.914C87.0177 127.222 86.7709 127.638 86.6721 128.099C86.5733 128.56 86.6279 129.041 86.8277 129.468C87.0275 129.895 87.3614 130.245 87.7786 130.465C88.1958 130.684 88.6734 130.762 89.1386 130.685C90.139 130.592 91.109 130.291 91.9858 129.8L100.959 125.554L94.7666 129.126C94.1491 129.425 93.6026 129.853 93.1634 130.381C92.9408 130.607 92.7975 130.899 92.7548 131.214C92.7122 131.529 92.7726 131.849 92.9269 132.126C93.0812 132.404 93.3211 132.624 93.6109 132.754C93.9007 132.883 94.2247 132.916 94.5344 132.846C95.0861 132.755 95.6176 132.568 96.1046 132.293L102.269 129.341C103.048 130.478 104.237 131.271 105.586 131.553C106.977 131.794 108.392 131.859 109.799 131.746L134.429 150.068C136.39 151.525 138.751 152.345 141.193 152.418C143.635 152.49 146.041 151.81 148.084 150.471C149.309 149.671 150.314 148.578 151.01 147.291C151.706 146.005 152.071 144.565 152.07 143.102C152.071 141.243 151.482 139.431 150.39 137.926C149.298 136.422 147.757 135.301 145.989 134.726L112.95 123.99Z" fill="#BD6C67"/>
<path d="M149.112 149.504C147.278 150.121 145.326 150.307 143.409 150.047C141.491 149.788 139.659 149.089 138.055 148.006L110.965 129.701C109.612 130.047 108.211 130.165 106.819 130.049C106.117 129.955 105.449 129.692 104.871 129.283C104.293 128.874 103.823 128.33 103.502 127.699L96.5911 131.038C95.896 131.436 95.126 131.684 94.3299 131.768C93.7696 131.784 93.2242 131.586 92.804 131.215C92.7732 131.394 92.7779 131.576 92.8177 131.753C92.8576 131.929 92.9318 132.096 93.0362 132.244C93.2187 132.454 93.451 132.614 93.7119 132.711C93.9727 132.808 94.2537 132.837 94.5289 132.797C95.0806 132.706 95.612 132.518 96.099 132.244L102.263 129.291C103.043 130.429 104.231 131.221 105.581 131.503C106.971 131.744 108.386 131.809 109.793 131.696L134.423 150.018C136.384 151.476 138.745 152.296 141.187 152.368C143.63 152.44 146.035 151.761 148.079 150.422C148.545 150.12 148.98 149.774 149.378 149.388L149.112 149.504Z" fill="#A64F5A"/>
<path d="M126.501 84.7754C125.23 85.6006 124.118 86.6474 123.217 87.8659C122.171 89.2605 121.376 90.8263 120.867 92.4933C120.362 94.1619 120.147 95.9047 120.231 97.6459C120.297 99.1683 120.636 100.666 121.232 102.069C121.09 100.61 121.072 99.1413 121.177 97.6791C121.305 96.0555 121.607 94.4503 122.078 92.8913C122.555 91.3326 123.202 89.8308 124.007 88.4132C124.73 87.1294 125.564 85.9121 126.501 84.7754Z" fill="#468097"/>
<path d="M61.4402 50.5535C62.17 56.3972 62.9274 62.3349 65.3102 67.6921C67.693 73.0493 72.0385 77.8923 77.7218 79.4348C82.7362 80.7893 88.3256 79.3519 92.3394 76.0513C96.3531 72.7507 98.8023 67.7584 99.3717 62.5726C100.964 63.6783 103.546 63.3522 105.155 62.2851C105.947 61.7244 106.605 60.9955 107.083 60.1506C107.561 59.3058 107.846 58.3658 107.919 57.3979C108.093 55.8574 107.681 54.3078 106.763 53.0579C106.297 52.4484 105.677 51.9737 104.967 51.6823C104.257 51.3909 103.482 51.2933 102.722 51.3994C101.97 51.5808 101.271 51.9351 100.679 52.4342C100.088 52.9332 99.6215 53.5633 99.3164 54.2742C98.7193 55.6997 98.3661 57.2153 98.2715 58.7579C96.613 57.5527 95.3801 55.3634 95.6234 53.3067C93.3677 53.0192 91.101 51.8417 89.9455 49.879C89.3725 48.8919 89.0288 47.7887 88.9398 46.6508C88.8508 45.513 89.0188 44.3697 89.4314 43.3055C87.2703 44.3336 84.8022 44.5131 82.5151 43.8086C80.3418 43.1202 78.5291 41.5997 77.473 39.5793C76.5387 41.2765 75.0184 42.8467 73.1773 43.4493C71.3081 44.0503 69.2812 43.926 67.4995 43.101C67.588 44.8093 67.2507 46.7775 66.1118 48.0767C64.9068 49.4419 63.2464 50.3222 61.4402 50.5535Z" fill="#BD6C67"/>
<path d="M103.607 54.0144C102.861 54.4956 102.24 55.1479 101.797 55.9172C101.354 56.6865 101.1 57.5504 101.058 58.4373C101.022 58.7173 101.048 59.0016 101.133 59.2708C101.218 59.54 101.36 59.7875 101.55 59.9963C101.751 60.1559 101.991 60.2578 102.245 60.2909C102.5 60.324 102.758 60.2871 102.993 60.1843C103.463 59.9747 103.851 59.6175 104.099 59.167C104.372 58.7409 104.507 58.2409 104.486 57.7351C104.475 57.4831 104.404 57.2373 104.278 57.0188C104.152 56.8002 103.974 56.6154 103.762 56.4802C103.546 56.3496 103.294 56.293 103.044 56.319C102.793 56.3449 102.558 56.452 102.374 56.6239C102.505 55.6474 102.936 54.7357 103.607 54.0144Z" fill="#A64F5A"/>
<path d="M87.7453 53.9149L78.6011 52.8921C79.0706 51.9822 79.8129 51.2418 80.724 50.7747C81.6053 50.3726 82.5954 50.2754 83.5381 50.4983C85.2519 50.9074 86.6396 52.5715 87.7453 53.9149Z" fill="#422C4F"/>
<path d="M63.6074 55.9439L68.5168 53.9536C68.1428 53.2584 67.5332 52.7193 66.7974 52.4332C66.3625 52.3371 65.9088 52.3719 65.4936 52.5333C65.0784 52.6946 64.7203 52.9753 64.4644 53.3399C63.9226 54.0365 63.8009 55.0759 63.6074 55.9439Z" fill="#422C4F"/>
<path d="M82.858 60.2396C82.858 61.2955 82.2167 62.1469 81.4317 62.1469C80.6466 62.1469 79.9998 61.2955 79.9998 60.2396C79.9998 59.1836 80.6411 58.3322 81.4317 58.3322C82.2222 58.3322 82.858 59.167 82.858 60.2396Z" fill="#422C4F"/>
<path d="M68.9479 60.4497C69.1469 61.384 68.7433 62.2686 68.0467 62.4178C67.3501 62.5671 66.6204 61.9258 66.4158 60.9915C66.2112 60.0571 66.6204 59.167 67.317 59.0178C68.0136 58.8685 68.7654 59.5098 68.9479 60.4497Z" fill="#422C4F"/>
<path d="M77.3794 65.6907C75.8674 65.8391 74.3483 65.9019 72.8293 65.8787C73.0086 66.339 73.3211 66.7353 73.7269 67.017C74.1326 67.2986 74.6132 67.4529 75.1071 67.4599C75.6155 67.4136 76.1 67.2223 76.5028 66.9087C76.9056 66.5951 77.2099 66.1723 77.3794 65.6907Z" fill="#A64F5A"/>
<path d="M85.4178 69.605C81.8833 71.0379 78.1954 72.0582 74.427 72.6457C75.6743 73.4725 77.049 74.0889 78.496 74.4701C79.9509 74.8229 81.4862 74.5885 82.7696 73.8178C84.0854 72.9442 84.8926 71.0977 85.4178 69.605Z" fill="white"/>
<path d="M85.0253 75.1502L80.3425 76.3664C81.1694 76.7935 82.1164 76.9279 83.0294 76.7479C83.8659 76.4739 84.5748 75.9063 85.0253 75.1502Z" fill="#A64F5A"/>
<path d="M95.2695 63.9437C95.6565 65.3922 93.8652 67.1227 91.2723 67.8137C88.6794 68.5048 86.2634 67.9022 85.8764 66.4592C85.4894 65.0163 87.2752 63.2803 89.8736 62.5892C92.472 61.8982 94.8825 62.4842 95.2695 63.9437Z" fill="#E68799"/>
<path d="M68.152 69.2788C69.4802 69.2788 70.5569 68.3679 70.5569 67.2443C70.5569 66.1206 69.4802 65.2097 68.152 65.2097C66.8238 65.2097 65.7471 66.1206 65.7471 67.2443C65.7471 68.3679 66.8238 69.2788 68.152 69.2788Z" fill="#E68799"/>
<path d="M68.3233 44.8259C69.9321 45.7049 72.1325 46.0201 73.8187 45.3013C74.6616 44.9331 75.4119 44.3819 76.0153 43.6877C76.6187 42.9934 77.06 42.1736 77.3072 41.2876C77.3871 42.0329 77.632 42.751 78.0241 43.3898C78.4162 44.0286 78.9456 44.572 79.5739 44.9807C80.8163 45.7567 82.2779 46.1061 83.7369 45.9758C85.185 45.8413 86.596 45.4421 87.9 44.7983C87.6035 45.8495 87.5586 46.9559 87.769 48.0277C87.9793 49.0995 88.4389 50.1068 89.1107 50.9681C90.432 52.6267 93.2295 53.5666 95.6344 53.3067C93.3788 53.0192 91.1121 51.8417 89.9566 49.879C89.3836 48.8919 89.0399 47.7887 88.9509 46.6508C88.8619 45.513 89.0299 44.3697 89.4424 43.3055C87.2814 44.3336 84.8132 44.5131 82.5262 43.8086C80.3528 43.1202 78.5402 41.5997 77.4841 39.5793C76.5498 41.2765 75.0294 42.8467 73.1884 43.4493C71.3192 44.0503 69.2923 43.926 67.5106 43.101C67.599 44.8093 67.2618 46.7775 66.1229 48.0767C64.9178 49.4504 63.2527 50.337 61.4402 50.5701L61.6392 52.1623C63.5134 52.1623 65.5977 51.4712 66.8361 50.067C67.4552 49.3571 67.9095 48.5191 68.1667 47.613C68.4238 46.7069 68.4773 45.7551 68.3233 44.8259Z" fill="#A64F5A"/>
<path d="M127.944 216.057H33.2226C32.6523 216.057 32.0995 215.86 31.6588 215.498C31.2181 215.136 30.9168 214.632 30.8066 214.072L22.8621 173.979H138.304L130.36 214.072C130.249 214.632 129.948 215.136 129.508 215.498C129.067 215.86 128.514 216.057 127.944 216.057Z" fill="#57A0CF"/>
<path d="M121.569 173.979H22.8621L24.0286 179.872H105.437C107.256 179.873 109.052 180.276 110.696 181.054C112.34 181.832 113.792 182.964 114.946 184.37C116.1 185.776 116.928 187.42 117.371 189.184C117.813 190.948 117.86 192.789 117.506 194.573L113.636 214.072C113.527 214.631 113.227 215.135 112.787 215.497C112.347 215.859 111.795 216.057 111.225 216.057H127.96C128.531 216.057 129.083 215.86 129.524 215.498C129.965 215.136 130.266 214.632 130.376 214.072L138.321 173.979H121.569Z" fill="#386693"/>
<path d="M34.3171 191.3L36.7275 203.463C36.9926 204.805 37.7152 206.013 38.7719 206.881C39.8286 207.749 41.1539 208.223 42.5215 208.223H46.1924C46.611 208.223 47.0247 208.134 47.4063 207.962C47.7879 207.79 48.1285 207.539 48.4056 207.225C48.6827 206.912 48.8899 206.543 49.0135 206.143C49.1371 205.743 49.1743 205.321 49.1226 204.906L47.569 192.959C47.3849 191.535 46.6884 190.227 45.6097 189.28C44.5311 188.332 43.1443 187.81 41.7088 187.811H37.214C36.7817 187.813 36.3551 187.91 35.9642 188.094C35.5732 188.279 35.2275 188.547 34.9513 188.88C34.6752 189.212 34.4752 189.601 34.3657 190.019C34.2561 190.438 34.2395 190.875 34.3171 191.3Z" fill="#70CDE2"/>
<path d="M19.3348 166.04L17.046 170.009H144.458L142.169 166.04H19.3348Z" fill="#57A0CF"/>
<path d="M19.3348 173.979H142.169L144.458 170.009H17.046L19.3348 173.979Z" fill="#4883B2"/>
<path d="M128.01 116.404C128.012 115.698 127.828 115.003 127.477 114.39C127.126 113.777 126.619 113.268 126.009 112.912C125.398 112.557 124.704 112.369 123.998 112.367C123.292 112.365 122.597 112.548 121.984 112.9C121.371 113.251 120.861 113.757 120.506 114.368C120.151 114.979 119.963 115.672 119.96 116.379C119.958 117.085 120.142 117.78 120.493 118.393C120.845 119.006 121.351 119.516 121.962 119.871C121.665 120.318 121.499 120.841 121.484 121.378C121.468 121.915 121.603 122.445 121.874 122.91C122.145 123.374 122.541 123.752 123.016 124.003C123.491 124.254 124.027 124.366 124.563 124.328C125.099 124.289 125.614 124.101 126.048 123.785C126.483 123.469 126.82 123.038 127.022 122.54C127.223 122.042 127.282 121.497 127.19 120.968C127.097 120.438 126.859 119.945 126.501 119.545C126.971 119.168 127.352 118.69 127.613 118.146C127.874 117.603 128.01 117.007 128.01 116.404Z" fill="#E6FBFC"/>
<path d="M37.5183 141.25C38.3831 140.427 39.0038 139.382 39.3116 138.229C39.6195 137.075 39.6026 135.86 39.2628 134.715C38.923 133.571 38.2735 132.543 37.3861 131.745C36.4987 130.947 35.4079 130.41 34.2343 130.193C34.3635 129.896 34.4294 129.576 34.4278 129.253C34.4271 128.936 34.3651 128.623 34.2453 128.33C35.2357 128.26 36.1724 127.854 36.8988 127.177C37.6252 126.5 38.0972 125.594 38.2359 124.611C38.3746 123.628 38.1717 122.627 37.661 121.776C37.1503 120.925 36.3628 120.274 35.4302 119.934C34.4976 119.594 33.4764 119.584 32.5373 119.906C31.5982 120.228 30.7983 120.863 30.2711 121.704C29.744 122.545 29.5216 123.542 29.6412 124.528C29.7608 125.513 30.2151 126.428 30.9282 127.119C30.6073 127.276 30.3263 127.505 30.1064 127.787C29.8864 128.068 29.7331 128.396 29.6581 128.746C29.5831 129.096 29.5883 129.458 29.6732 129.805C29.7582 130.152 29.9207 130.476 30.1487 130.751C29.0408 131.296 28.1117 132.146 27.471 133.201C26.8304 134.256 26.5048 135.473 26.5327 136.707C26.5606 137.941 26.9408 139.142 27.6285 140.167C28.3162 141.192 29.2827 142 30.414 142.494C29.8854 143.301 29.6047 144.246 29.6066 145.211C29.6085 146.176 29.8929 147.119 30.4247 147.925C30.9565 148.73 31.7125 149.362 32.5993 149.743C33.4862 150.123 34.4651 150.236 35.4152 150.067C36.3654 149.898 37.2453 149.454 37.9463 148.791C38.6473 148.128 39.1387 147.274 39.36 146.334C39.5813 145.395 39.5227 144.411 39.1915 143.505C38.8603 142.598 38.2709 141.809 37.4961 141.233L37.5183 141.25Z" fill="#E6FBFC"/>
<path d="M27.9042 135.87C27.818 136.861 28.0366 137.854 28.5307 138.716C29.0248 139.579 29.7707 140.27 30.6685 140.697C30.9505 140.842 31.2765 140.878 31.5831 140.796C31.8898 140.714 32.1549 140.521 32.327 140.255C32.4876 139.971 32.5312 139.637 32.4486 139.322C32.3659 139.007 32.1637 138.736 31.8848 138.568C31.3589 138.36 30.9188 137.98 30.6359 137.491C30.3529 137.001 30.2436 136.43 30.3257 135.87C30.4639 134.289 28.0037 134.3 27.8655 135.87H27.9042Z" fill="white"/>
<path d="M32.1224 147.751C33.7036 147.751 33.7091 145.286 32.1224 145.286C30.5357 145.286 30.5357 147.751 32.1224 147.751Z" fill="white"/>
<path d="M120.215 166.04C119.203 162.336 117.771 156.376 117.616 152.539C117.461 148.702 118.246 144.711 120.53 141.626C122.946 138.369 126.744 136.456 129.69 133.67C132.562 131.01 134.458 127.463 135.075 123.597C135.366 121.673 135.248 119.71 134.728 117.835C134.208 115.96 133.297 114.216 132.057 112.717C129.525 109.776 125.373 107.907 121.552 108.57C123.732 110.139 125.246 112.465 125.799 115.093C126.351 117.721 125.901 120.46 124.538 122.773C122.57 126.09 119.009 128.13 116.411 131.022C112.237 135.699 110.595 142.925 112.95 148.713C106.061 144.29 76.6438 142.925 67.5382 148.465L69.5009 141.471C71.1387 140.308 72.5623 138.869 73.7081 137.219C74.2271 136.446 74.5669 135.567 74.7027 134.646C74.8386 133.725 74.767 132.785 74.4932 131.895C72.636 125.635 69.9195 119.663 66.4215 114.149C66.4215 114.149 65.9294 106.519 64.4533 101.472C62.6068 102.826 58.8363 107.05 57.3159 113.043C57.3159 113.043 50.0514 112.794 46.115 113.657C46.115 113.657 44.7605 104.424 41.6922 100.388C27.528 119.738 32.7746 141.808 42.7979 166.062L120.215 166.04Z" fill="#CFB59D"/>
<path d="M131.338 131.884C133.316 129.512 134.609 126.645 135.075 123.592C135.366 121.668 135.248 119.704 134.728 117.829C134.208 115.954 133.297 114.21 132.057 112.711C129.525 109.77 125.373 107.901 121.552 108.565C123.732 110.133 125.246 112.46 125.799 115.087C126.351 117.715 125.901 120.455 124.538 122.768C122.807 125.703 119.828 127.622 117.378 130.01C119.453 131.262 121.762 132.075 124.164 132.396C126.565 132.717 129.007 132.541 131.338 131.879V131.884Z" fill="#978093"/>
<path d="M91.2228 159.671C93.2418 160.584 95.4616 160.963 97.6692 160.772C99.8768 160.58 101.998 159.825 103.83 158.577C105.661 157.33 107.142 155.633 108.129 153.65C109.116 151.666 109.577 149.461 109.467 147.248C102.219 145.037 88.4585 144.141 78.1035 145.485L81.6639 150.388C84.2845 154.015 87.1151 157.824 91.2228 159.671Z" fill="#978093"/>
<path d="M51.7486 113.071C49.8599 113.114 47.9777 113.31 46.1206 113.657C46.1206 113.657 44.7661 104.424 41.6977 100.388C34.6266 110.03 32.3931 120.368 33.1782 131.348C37.6515 130.309 41.7514 128.056 45.0269 124.837C48.3024 121.618 50.6264 117.558 51.7431 113.104L51.7486 113.071Z" fill="#978093"/>
<path d="M66.1452 127.721C68.4025 128.543 70.8673 128.602 73.161 127.887C71.4381 123.077 69.1793 118.476 66.4272 114.171C66.4272 114.171 65.9351 106.541 64.459 101.494C62.6124 102.848 58.842 107.072 57.3216 113.065C57.3216 113.065 56.8627 113.065 56.1108 113.065C56.4673 115.927 57.362 118.696 58.748 121.225C60.3819 124.186 62.9981 126.484 66.1452 127.721Z" fill="#978093"/>
<path d="M113.862 134.792C111.684 139.099 111.164 144.324 112.95 148.735C113.854 149.423 114.718 150.161 115.537 150.947C113.379 145.85 112.795 140.224 113.862 134.792Z" fill="#8E7564"/>
<path d="M75.5051 145.888C72.2212 146.48 69.4237 147.331 67.5385 148.487C66.6033 151.466 65.3035 154.318 63.6685 156.979C69.1583 155.165 73.83 148.923 75.5051 145.888Z" fill="#8E7564"/>
<path d="M45.3191 143.688C55.6409 151.688 65.5813 146.071 68.8653 143.754L69.5066 141.471C66.0623 143.754 50.5547 145.413 45.3191 143.688Z" fill="#8E7564"/>
<path d="M60.1023 113.248C61.5886 113.261 63.07 113.42 64.5252 113.723C64.3723 110.381 63.8871 107.062 63.0767 103.816C61.7117 106.83 60.7132 109.996 60.1023 113.248Z" fill="#422C4F"/>
<path d="M64.5586 113.723C65.6643 113.939 66.4272 114.149 66.4272 114.149C66.4272 114.149 65.9352 106.519 64.4591 101.472C63.9529 102.219 63.502 103.003 63.1101 103.816C63.9205 107.062 64.4057 110.381 64.5586 113.723Z" fill="#645B79"/>
<path d="M39.7187 115.708C40.8939 115.177 42.1083 114.737 43.3509 114.392C43.0574 110.636 42.2117 106.944 40.8409 103.434C40.1278 106.398 39.293 111.097 39.7187 115.708Z" fill="#422C4F"/>
<path d="M43.3509 114.392C44.3626 114.088 45.3522 113.839 46.1152 113.657C46.1152 113.657 44.7607 104.424 41.6923 100.388C41.6923 100.388 41.2887 101.571 40.8298 103.456C42.2022 106.958 43.0517 110.643 43.3509 114.392Z" fill="#645B79"/>
<path d="M54.0209 124.216C54.1536 125.875 53.6008 127.246 52.7881 127.307C51.9754 127.368 51.2069 126.096 51.0742 124.448C50.9415 122.801 51.4999 121.424 52.3126 121.358C53.1253 121.292 53.8606 122.574 54.0209 124.216Z" fill="#422C4F"/>
<path d="M65.3544 123.885C65.2383 125.344 65.7303 126.577 66.4601 126.649C67.1898 126.721 67.8643 125.571 67.9804 124.111C68.0965 122.652 67.6045 121.419 66.8747 121.347C66.1449 121.275 65.4705 122.425 65.3544 123.885Z" fill="#422C4F"/>
<path d="M68.0527 135.489C67.1122 135.689 66.1319 135.57 65.2662 135.152C64.4004 134.733 63.6984 134.039 63.2705 133.178C63.1105 132.877 62.9808 132.56 62.8835 132.233C62.9164 131.672 62.849 131.111 62.6845 130.574V130.922C62.6845 130.834 62.6845 130.74 62.6845 130.652C62.5184 131.14 62.4526 131.657 62.491 132.172C62.3543 132.698 62.1519 133.205 61.8883 133.681C61.343 134.731 60.4784 135.58 59.4192 136.107C58.36 136.633 57.1609 136.81 55.9949 136.611C54.9173 136.458 53.895 136.038 53.0205 135.389C53.7143 136.334 54.7117 137.011 55.8456 137.308C57.1735 137.701 58.6006 137.577 59.8412 136.962C61.0817 136.347 62.044 135.285 62.5352 133.991C62.6159 133.781 62.6842 133.567 62.7397 133.349C62.7397 133.377 62.7397 133.405 62.7674 133.438C63.1519 134.502 63.9377 135.373 64.9565 135.865C65.9754 136.357 67.1463 136.43 68.2186 136.069C69.1282 135.795 69.9114 135.207 70.43 134.411C69.7439 134.969 68.9249 135.341 68.0527 135.489Z" fill="#422C4F"/>
<path d="M64.8347 129.734C63.0458 129.221 61.1322 129.37 59.4443 130.154C60.3583 131.076 61.5269 131.703 62.8002 131.956C63.635 131.547 64.3426 130.53 64.8347 129.734Z" fill="#422C4F"/>
<path d="M25.7258 136.567C29.2531 135.544 33.8584 134.278 38.5411 133.338C43.2238 132.399 47.9396 131.746 51.5996 131.309C42.691 131.113 33.8511 132.909 25.7258 136.567Z" fill="#967F92"/>
<path d="M26.4612 140.78C29.8281 139.646 34.2012 138.121 38.624 136.744C43.0469 135.367 47.5029 134.107 50.9141 133.117C42.4012 134.32 34.1428 136.908 26.4667 140.78H26.4612Z" fill="#967F92"/>
<path d="M30.4138 145.822C33.2721 144.307 36.9541 142.25 40.6638 140.249C44.3735 138.248 48.0997 136.28 50.9304 134.721C47.2753 136.087 43.7224 137.713 40.2989 139.586C36.8614 141.43 33.5582 143.513 30.4138 145.822Z" fill="#967F92"/>
<path d="M91.9802 133.803C89.2219 132.294 86.233 131.251 83.1344 130.718C78.9406 129.957 74.6627 129.771 70.4187 130.165C74.2887 130.464 78.8221 130.889 82.858 131.619C85.9382 132.171 88.984 132.9 91.9802 133.803Z" fill="#967F92"/>
<path d="M90.7195 137.463C88.1798 136.057 85.4786 134.965 82.6754 134.212C78.9143 133.161 75.0556 132.498 71.1594 132.233C74.6203 133.067 78.7336 134.013 82.3824 134.997C85.6774 135.898 88.6242 136.832 90.7195 137.463Z" fill="#967F92"/>
<path d="M87.2753 141.941C85.2186 140.367 83.0112 139 80.6853 137.861C77.6107 136.32 74.4111 135.042 71.1208 134.041C73.9349 135.45 77.3073 137.037 80.3204 138.513C83.0515 139.846 85.5338 141.106 87.2753 141.941Z" fill="#967F92"/>
<path d="M74.7032 163.154C74.2707 163.154 73.8393 163.197 73.4151 163.281C73.3139 162.753 73.0662 162.264 72.7003 161.871C72.3345 161.477 71.8651 161.194 71.3461 161.055C70.827 160.915 70.2791 160.924 69.7651 161.081C69.251 161.239 68.7916 161.537 68.4393 161.943C67.6865 161.186 66.7121 160.689 65.6574 160.523C64.6027 160.357 63.5225 160.531 62.5735 161.02C62.1342 159.841 61.3434 158.826 60.3082 158.111C59.273 157.396 58.0432 157.016 56.7851 157.023C55.8242 157.022 54.8769 157.25 54.0208 157.686C53.2299 155.843 51.9524 154.249 50.3251 153.076C48.6978 151.903 46.7821 151.195 44.7831 151.027C42.7842 150.86 40.7773 151.239 38.9775 152.125C37.1776 153.011 35.6526 154.369 34.5658 156.055C33.9923 155.884 33.3885 155.841 32.7963 155.927C32.2042 156.013 31.638 156.227 31.137 156.555C30.6361 156.882 30.2125 157.314 29.8957 157.822C29.5788 158.33 29.3765 158.9 29.3026 159.494C29.1091 159.494 28.9156 159.466 28.7165 159.466C26.9475 159.468 25.2481 160.156 23.9758 161.385C22.7034 162.614 21.9573 164.289 21.8943 166.057H80.3037C79.6691 165.161 78.8297 164.431 77.8555 163.926C76.8813 163.421 75.8005 163.156 74.7032 163.154Z" fill="#E6FBFC"/>
<path d="M134.611 160.998C133.919 161 133.233 161.122 132.582 161.357C132.582 161.258 132.582 161.158 132.582 161.059C132.584 159.966 132.225 158.903 131.563 158.035C130.9 157.166 129.97 156.539 128.915 156.252C127.861 155.965 126.742 156.032 125.73 156.444C124.718 156.856 123.87 157.59 123.316 158.532C122.575 157.343 121.514 156.386 120.255 155.77C118.996 155.153 117.589 154.903 116.195 155.047C114.801 155.191 113.475 155.724 112.369 156.584C111.263 157.445 110.42 158.598 109.937 159.914C109.705 159.874 109.47 159.854 109.235 159.853C108.355 159.853 107.498 160.137 106.791 160.663C106.085 161.189 105.567 161.929 105.315 162.773C104.317 161.908 103.125 161.296 101.84 160.99C100.555 160.683 99.2154 160.69 97.934 161.011C96.6526 161.331 95.4672 161.956 94.4781 162.831C93.4889 163.706 92.7251 164.807 92.2512 166.04H140.576C140.332 164.633 139.601 163.357 138.51 162.435C137.42 161.513 136.039 161.004 134.611 160.998Z" fill="#E6FBFC"/>
<path d="M106.725 144.058C106.244 144.059 105.771 144.184 105.354 144.423C105.257 143.611 104.866 142.862 104.255 142.319C103.644 141.775 102.855 141.473 102.037 141.471C101.851 141.474 101.667 141.49 101.484 141.521C101.484 141.521 101.484 141.488 101.484 141.471C101.486 139.953 100.954 138.483 99.9814 137.317C99.009 136.151 97.6579 135.364 96.1642 135.093C94.6705 134.823 93.1292 135.086 91.8096 135.836C90.49 136.586 89.4761 137.777 88.945 139.199C88.3575 138.28 87.4679 137.594 86.4295 137.261C85.391 136.927 84.2687 136.966 83.2558 137.37C82.2429 137.775 81.4027 138.52 80.8801 139.477C80.3574 140.435 80.1849 141.544 80.3923 142.615C80.1327 142.558 79.8677 142.528 79.6017 142.527C78.8951 142.527 78.2044 142.736 77.617 143.129C77.0295 143.522 76.5718 144.08 76.3016 144.733C76.0314 145.386 75.9611 146.104 76.0993 146.797C76.2376 147.49 76.5783 148.126 77.0783 148.626C77.5783 149.125 78.2152 149.465 78.9084 149.602C79.6015 149.739 80.3198 149.668 80.9723 149.396C81.6248 149.125 82.1822 148.667 82.574 148.079C82.9657 147.49 83.1743 146.799 83.1732 146.093V146.06C83.6024 146.244 84.0573 146.361 84.5222 146.408C84.4468 146.744 84.4079 147.087 84.4061 147.431C84.4033 148.167 84.5793 148.893 84.9187 149.546C85.2582 150.199 85.7511 150.76 86.3551 151.181C86.9591 151.602 87.6562 151.87 88.3866 151.962C89.1169 152.054 89.8587 151.967 90.5483 151.71C90.8397 153.056 91.6232 154.245 92.7454 155.044C93.8676 155.843 95.2477 156.194 96.6153 156.029C97.9829 155.864 99.2396 155.194 100.139 154.151C101.039 153.107 101.516 151.766 101.478 150.389C101.478 150.339 101.478 150.289 101.478 150.234C101.808 150.585 102.217 150.852 102.671 151.011C103.126 151.17 103.612 151.217 104.088 151.148C104.565 151.079 105.018 150.896 105.408 150.615C105.799 150.333 106.116 149.962 106.332 149.532C106.466 149.549 106.601 149.558 106.736 149.559C107.469 149.559 108.172 149.268 108.691 148.75C109.209 148.231 109.5 147.528 109.5 146.795C109.5 146.062 109.209 145.359 108.691 144.84C108.172 144.322 107.469 144.031 106.736 144.031L106.725 144.058Z" fill="#E6FBFC"/>
<path d="M61.5342 110.809C61.6476 110.406 61.7053 109.99 61.7056 109.571C61.7064 108.768 61.5005 107.979 61.1076 107.279C60.7148 106.58 60.1483 105.993 59.4627 105.576C58.7771 105.158 57.9956 104.925 57.1935 104.897C56.3914 104.87 55.5958 105.05 54.8834 105.419C54.3566 104.457 53.5876 103.649 52.6525 103.075C51.7173 102.501 50.6485 102.182 49.552 102.148C48.4554 102.115 47.3691 102.368 46.4007 102.884C45.4322 103.399 44.6153 104.159 44.0308 105.087C44.9629 107.881 45.6619 110.747 46.1206 113.657L46.6734 113.546H46.7951L47.3479 113.458H47.4419L47.9948 113.38H48.0832C48.2933 113.38 48.5089 113.33 48.7245 113.314H48.8296C49.2774 113.27 49.7363 113.231 50.1951 113.203H50.2836L50.9857 113.165L51.721 113.131C52.401 113.104 53.0645 113.087 53.6837 113.076H53.8495C54.7072 113.869 55.8326 114.31 57.0008 114.309C57.3033 114.308 57.605 114.278 57.902 114.221C58.041 114.911 58.4272 115.527 58.988 115.953C59.5489 116.379 60.2459 116.585 60.9483 116.533C61.6506 116.482 62.31 116.176 62.8026 115.673C63.2953 115.169 63.5874 114.504 63.624 113.8C63.6268 113.753 63.6268 113.705 63.624 113.657C63.6402 113.018 63.4438 112.391 63.0655 111.876C62.6873 111.361 62.1487 110.986 61.5342 110.809Z" fill="#E6FBFC"/>
<path d="M136.634 129.601C136.636 128.677 136.333 127.778 135.773 127.044C135.213 126.309 134.427 125.779 133.536 125.535C132.644 125.292 131.698 125.349 130.842 125.697C129.986 126.045 129.269 126.665 128.8 127.462C128.381 127.285 127.929 127.194 127.474 127.196C126.56 127.196 125.684 127.559 125.038 128.205C124.392 128.851 124.029 129.727 124.029 130.64C124.033 131.221 124.181 131.791 124.46 132.299C123.303 132.5 122.253 133.104 121.499 134.005C120.744 134.906 120.332 136.044 120.336 137.219C120.339 137.507 120.365 137.793 120.414 138.076C119.944 138.203 119.515 138.447 119.166 138.784C118.816 139.122 118.559 139.543 118.417 140.008C118.275 140.473 118.253 140.966 118.354 141.442C118.455 141.917 118.674 142.359 118.993 142.726C119.311 143.093 119.717 143.374 120.174 143.541C120.63 143.708 121.121 143.757 121.601 143.682C122.082 143.607 122.535 143.412 122.919 143.114C123.303 142.816 123.605 142.426 123.797 141.98C124.296 142.14 124.816 142.222 125.34 142.223C126.667 142.223 127.94 141.696 128.879 140.758C129.819 139.82 130.347 138.547 130.348 137.219C130.351 137.172 130.351 137.124 130.348 137.076C130.606 137.149 130.872 137.186 131.139 137.186C131.587 137.188 132.03 137.086 132.432 136.888C132.834 136.69 133.185 136.402 133.457 136.046C133.729 135.69 133.915 135.275 134 134.835C134.085 134.395 134.067 133.942 133.948 133.51C134.737 133.204 135.415 132.667 135.894 131.97C136.374 131.273 136.632 130.447 136.634 129.601Z" fill="#E6FBFC"/>
<path d="M46.0817 107.056C46.3322 107.144 46.6032 107.158 46.8615 107.096C47.1198 107.033 47.3541 106.896 47.5357 106.702C48.1117 106.221 48.8225 105.931 49.5702 105.872C49.8836 105.783 50.1493 105.574 50.3097 105.291C50.4701 105.007 50.5123 104.672 50.4272 104.358C50.3344 104.047 50.1249 103.784 49.8424 103.624C49.56 103.464 49.2266 103.42 48.9123 103.501C48.234 103.585 47.5724 103.772 46.9497 104.054C46.5148 104.211 46.0902 104.396 45.6781 104.606C44.7327 105.198 45.0368 106.663 46.0209 107.033L46.0817 107.056Z" fill="white"/>
<path d="M58.9969 108.609C60.5836 108.609 60.5836 106.149 58.9969 106.149C57.4102 106.149 57.4102 108.609 58.9969 108.609Z" fill="white"/>
<path d="M62.0597 114.735C63.6464 114.735 63.6464 112.275 62.0597 112.275C60.473 112.275 60.473 114.735 62.0597 114.735Z" fill="white"/>
<path d="M37.1148 161.6C37.2983 159.83 38.1083 158.184 39.3988 156.958C40.6893 155.733 42.3753 155.008 44.1526 154.916C45.7227 154.817 45.7338 152.351 44.1526 152.456C41.732 152.571 39.4356 153.562 37.6913 155.244C35.947 156.927 34.8736 159.186 34.6711 161.6C34.4997 163.171 36.9655 163.16 37.1313 161.6H37.1148Z" fill="white"/>
<path d="M26.2676 164.243C26.756 163.634 27.4614 163.238 28.2358 163.137C28.55 163.05 28.8166 162.841 28.9772 162.557C29.1378 162.273 29.1794 161.937 29.0927 161.623C29.0012 161.312 28.7929 161.049 28.5116 160.888C28.2303 160.727 27.8977 160.681 27.5834 160.76C26.391 160.959 25.3077 161.574 24.5261 162.496C24.3037 162.73 24.1797 163.041 24.1797 163.364C24.1797 163.687 24.3037 163.998 24.5261 164.232C24.758 164.461 25.0709 164.59 25.3969 164.59C25.7229 164.59 26.0358 164.461 26.2676 164.232V164.243Z" fill="white"/>
<path d="M54.7395 161.501C54.7735 161.453 54.8049 161.403 54.8335 161.352C54.734 161.473 54.7119 161.495 54.7727 161.429L54.828 161.363C54.8722 161.318 54.9164 161.285 54.9551 161.241C54.9938 161.197 54.7229 161.379 54.9551 161.241L55.1044 161.153C55.2702 161.059 55.0712 161.153 55.0546 161.153C55.0933 161.086 55.4029 161.064 55.4803 161.053C55.6363 161.01 55.7823 160.937 55.9098 160.838C56.0374 160.738 56.1441 160.615 56.2237 160.474C56.3034 160.333 56.3544 160.178 56.3739 160.017C56.3933 159.857 56.3809 159.694 56.3373 159.538C56.2422 159.229 56.0322 158.968 55.7504 158.808C55.4687 158.649 55.1366 158.604 54.8224 158.681C54.36 158.757 53.9208 158.937 53.5377 159.207C53.1547 159.477 52.8379 159.83 52.611 160.24C52.5297 160.38 52.4766 160.534 52.4548 160.694C52.4331 160.854 52.443 161.016 52.4841 161.172C52.5251 161.328 52.5965 161.475 52.6942 161.603C52.7919 161.732 52.9139 161.84 53.0533 161.921C53.1927 162.002 53.3467 162.055 53.5066 162.077C53.6665 162.099 53.8292 162.089 53.9852 162.048C54.1413 162.007 54.2877 161.936 54.4162 161.838C54.5447 161.74 54.6527 161.618 54.734 161.479L54.7395 161.501Z" fill="white"/>
<path d="M70.1202 164.077C71.7069 164.077 71.7069 161.617 70.1202 161.617C68.5335 161.617 68.5335 164.077 70.1202 164.077Z" fill="white"/>
<path d="M77.1858 144.749C77.0159 145.221 76.9893 145.733 77.1093 146.22C77.2293 146.707 77.4906 147.147 77.8603 147.486C78.0949 147.71 78.4067 147.835 78.7311 147.835C79.0555 147.835 79.3673 147.71 79.6019 147.486C79.8298 147.253 79.9574 146.941 79.9574 146.615C79.9574 146.29 79.8298 145.977 79.6019 145.745C79.5574 145.71 79.5166 145.671 79.4802 145.628C79.5797 145.772 79.5963 145.783 79.5189 145.673C79.4415 145.562 79.4636 145.579 79.5189 145.739C79.4973 145.687 79.4807 145.634 79.4692 145.579C79.4415 145.44 79.4692 145.468 79.4692 145.651C79.4636 145.595 79.4636 145.54 79.4692 145.485C79.4415 145.667 79.4415 145.695 79.4692 145.562C79.4843 145.508 79.5027 145.454 79.5245 145.402C79.6111 145.087 79.5695 144.751 79.4089 144.467C79.2483 144.183 78.9817 143.975 78.6675 143.887C78.3527 143.811 78.0206 143.857 77.7391 144.018C77.4575 144.178 77.2478 144.44 77.1527 144.749H77.1858Z" fill="white"/>
<path d="M83.7151 141.648C83.7265 141.577 83.7431 141.506 83.7649 141.438C83.8367 141.211 83.7262 141.41 83.7649 141.438C83.7649 141.405 83.8533 141.272 83.8644 141.25L83.9086 141.178C83.9639 141.101 83.9418 141.128 83.8423 141.255C83.9307 141.222 84.0413 141.051 84.1132 140.984C84.185 140.918 83.9086 141.095 84.1132 140.984L84.3398 140.863C84.6136 140.697 84.8125 140.432 84.8949 140.123C84.9774 139.813 84.937 139.484 84.7821 139.204C84.6122 138.927 84.3419 138.727 84.0278 138.645C83.7137 138.562 83.3798 138.604 83.0959 138.762C82.6617 138.979 82.2812 139.291 81.982 139.673C81.6827 140.055 81.4721 140.5 81.3655 140.973C81.2782 141.289 81.3198 141.626 81.481 141.91C81.6422 142.195 81.9099 142.404 82.2252 142.491C82.5404 142.578 82.8774 142.537 83.162 142.375C83.4466 142.214 83.6555 141.947 83.7428 141.631L83.7151 141.648Z" fill="white"/>
<path d="M91.256 141.781C91.5435 139.624 93.5006 138.364 95.5683 138.508C97.1494 138.618 97.1439 136.158 95.5683 136.047C92.0134 135.799 89.2547 138.353 88.7903 141.781C88.5802 143.345 91.0459 143.334 91.256 141.781Z" fill="white"/>
<path d="M112.624 162.607C112.846 161.841 113.218 161.126 113.719 160.505C114.219 159.883 114.837 159.367 115.537 158.985C116.92 158.217 115.681 156.088 114.293 156.862C112.328 157.962 110.874 159.791 110.247 161.954C109.799 163.48 112.176 164.127 112.624 162.607Z" fill="white"/>
<path d="M118.307 158.582C119.888 158.582 119.894 156.116 118.307 156.116C116.721 156.116 116.721 158.582 118.307 158.582Z" fill="white"/>
<path d="M123.609 133.576C122.789 134.133 122.162 134.932 121.815 135.861C121.468 136.79 121.419 137.804 121.674 138.762C122.061 140.299 124.438 139.646 124.046 138.11C123.916 137.674 123.924 137.208 124.069 136.777C124.213 136.345 124.487 135.969 124.853 135.699C125.123 135.53 125.318 135.264 125.4 134.957C125.482 134.649 125.445 134.322 125.295 134.04C125.128 133.761 124.858 133.557 124.543 133.475C124.227 133.392 123.892 133.436 123.609 133.598V133.576Z" fill="white"/>
<path d="M126.213 131.591C127.8 131.591 127.8 129.126 126.213 129.126C124.627 129.126 124.627 131.591 126.213 131.591Z" fill="white"/>
<path d="M98.4432 164.055C99.9248 163.502 99.2835 161.147 97.7908 161.683C95.6427 162.434 93.8756 163.999 92.8704 166.04H95.7176C96.4209 165.135 97.3657 164.447 98.4432 164.055Z" fill="white"/>
<g opacity="0.8">
<path opacity="0.8" d="M107.709 104.347C109.672 104.347 111.264 102.755 111.264 100.792C111.264 98.8284 109.672 97.2368 107.709 97.2368C105.746 97.2368 104.154 98.8284 104.154 100.792C104.154 102.755 105.746 104.347 107.709 104.347Z" fill="#E6FBFC"/>
<path opacity="0.8" d="M108.079 99.8021C108.079 100.108 107.988 100.408 107.818 100.662C107.648 100.917 107.406 101.115 107.124 101.232C106.841 101.349 106.529 101.38 106.229 101.32C105.929 101.261 105.653 101.113 105.437 100.897C105.22 100.68 105.073 100.404 105.013 100.104C104.953 99.8038 104.984 99.4925 105.101 99.2097C105.218 98.9268 105.417 98.6851 105.671 98.515C105.926 98.3449 106.225 98.2541 106.531 98.2541C106.942 98.2541 107.335 98.4172 107.626 98.7075C107.916 98.9978 108.079 99.3915 108.079 99.8021Z" fill="white"/>
</g>
<g opacity="0.8">
<path opacity="0.8" d="M124.273 90.8347C125.671 90.8347 126.805 89.7011 126.805 88.3026C126.805 86.9042 125.671 85.7705 124.273 85.7705C122.874 85.7705 121.74 86.9042 121.74 88.3026C121.74 89.7011 122.874 90.8347 124.273 90.8347Z" fill="#E6FBFC"/>
<path opacity="0.8" d="M124.538 87.595C124.538 87.8136 124.473 88.0274 124.352 88.2093C124.23 88.3911 124.057 88.5328 123.855 88.6165C123.653 88.7002 123.431 88.7221 123.217 88.6794C123.002 88.6368 122.805 88.5315 122.65 88.3768C122.496 88.2222 122.39 88.0252 122.348 87.8107C122.305 87.5962 122.327 87.3739 122.411 87.1718C122.494 86.9698 122.636 86.7971 122.818 86.6756C123 86.5541 123.214 86.4892 123.432 86.4892C123.725 86.4892 124.007 86.6057 124.214 86.8131C124.421 87.0205 124.538 87.3017 124.538 87.595Z" fill="white"/>
</g>
<g opacity="0.8">
<path opacity="0.8" d="M119.678 99.0888C119.678 99.4095 119.583 99.7229 119.405 99.9894C119.227 100.256 118.974 100.463 118.677 100.586C118.381 100.708 118.055 100.74 117.741 100.677C117.426 100.614 117.138 100.459 116.911 100.232C116.685 100.005 116.531 99.7161 116.469 99.4015C116.407 99.0869 116.44 98.761 116.564 98.4651C116.687 98.1692 116.896 97.9166 117.163 97.7393C117.43 97.5619 117.744 97.4679 118.064 97.469C118.277 97.469 118.487 97.5109 118.683 97.5924C118.879 97.6739 119.058 97.7933 119.208 97.9438C119.358 98.0942 119.476 98.2729 119.557 98.4694C119.638 98.6659 119.679 98.8764 119.678 99.0888Z" fill="#E6FBFC"/>
<path opacity="0.8" d="M117.522 99.3432C117.91 99.3432 118.225 99.0288 118.225 98.641C118.225 98.2533 117.91 97.9389 117.522 97.9389C117.135 97.9389 116.82 98.2533 116.82 98.641C116.82 99.0288 117.135 99.3432 117.522 99.3432Z" fill="white"/>
</g>
<path d="M141.54 80.1394C143.871 79.1682 144.973 76.4913 144.002 74.1605C143.031 71.8296 140.354 70.7274 138.023 71.6986C135.692 72.6698 134.59 75.3466 135.561 77.6775C136.532 80.0084 139.209 81.1106 141.54 80.1394Z" fill="#E6FBFC"/>
<path d="M138.271 76.6318C139.37 76.6318 140.261 75.7407 140.261 74.6415C140.261 73.5423 139.37 72.6513 138.271 72.6513C137.172 72.6513 136.281 73.5423 136.281 74.6415C136.281 75.7407 137.172 76.6318 138.271 76.6318Z" fill="white"/>
<path d="M147.393 87.595C147.394 88.1758 147.223 88.7439 146.901 89.2274C146.579 89.7109 146.121 90.0881 145.585 90.3111C145.049 90.5341 144.458 90.5931 143.888 90.4804C143.318 90.3678 142.795 90.0886 142.384 89.6783C141.973 89.2679 141.693 88.7449 141.579 88.1752C141.465 87.6056 141.523 87.0151 141.745 86.4783C141.967 85.9416 142.343 85.4828 142.826 85.16C143.309 84.8371 143.877 84.6648 144.458 84.6648C145.235 84.6648 145.981 84.9734 146.531 85.5227C147.082 86.0721 147.392 86.8173 147.393 87.595Z" fill="#E6FBFC"/>
<path d="M144.761 86.7767C144.763 87.0298 144.688 87.2775 144.549 87.4883C144.409 87.6992 144.209 87.8638 143.976 87.9611C143.742 88.0584 143.485 88.0842 143.237 88.0351C142.988 87.986 142.76 87.8642 142.581 87.6853C142.402 87.5064 142.281 87.2783 142.232 87.0301C142.182 86.7818 142.208 86.5246 142.306 86.291C142.403 86.0574 142.567 85.858 142.778 85.7181C142.989 85.5782 143.237 85.5041 143.49 85.5052C143.657 85.5052 143.822 85.538 143.977 85.6019C144.131 85.6659 144.271 85.7595 144.389 85.8776C144.507 85.9957 144.601 86.1358 144.665 86.2901C144.729 86.4444 144.761 86.6098 144.761 86.7767Z" fill="white"/>
<path d="M24.7859 118.096C27.2103 118.096 29.1756 116.131 29.1756 113.706C29.1756 111.282 27.2103 109.317 24.7859 109.317C22.3616 109.317 20.3962 111.282 20.3962 113.706C20.3962 116.131 22.3616 118.096 24.7859 118.096Z" fill="#E6FBFC"/>
<path d="M25.2393 112.485C25.2404 112.862 25.1294 113.231 24.9205 113.546C24.7116 113.86 24.4141 114.105 24.0657 114.251C23.7172 114.396 23.3336 114.434 22.9632 114.362C22.5929 114.289 22.2525 114.107 21.9852 113.841C21.7179 113.574 21.5357 113.234 21.4616 112.864C21.3876 112.494 21.425 112.11 21.5692 111.761C21.7134 111.413 21.9579 111.114 22.2717 110.905C22.5855 110.695 22.9544 110.583 23.3319 110.583C23.8364 110.584 24.3198 110.785 24.6771 111.141C25.0343 111.497 25.2364 111.98 25.2393 112.485Z" fill="white"/>
<path d="M23.3319 122.967C23.3319 123.547 23.1597 124.115 22.8372 124.598C22.5146 125.081 22.0561 125.457 21.5197 125.679C20.9833 125.901 20.393 125.959 19.8235 125.846C19.2541 125.733 18.731 125.453 18.3204 125.043C17.9098 124.632 17.6303 124.109 17.517 123.54C17.4037 122.97 17.4618 122.38 17.684 121.843C17.9062 121.307 18.2825 120.848 18.7653 120.526C19.248 120.203 19.8156 120.031 20.3962 120.031C21.1748 120.031 21.9215 120.34 22.4721 120.891C23.0226 121.441 23.3319 122.188 23.3319 122.967Z" fill="#E6FBFC"/>
<path d="M20.7003 122.149C20.7003 122.401 20.6253 122.649 20.4847 122.859C20.3441 123.069 20.1443 123.232 19.9107 123.329C19.677 123.425 19.4199 123.45 19.172 123.401C18.9241 123.351 18.6966 123.229 18.5182 123.05C18.3398 122.87 18.2186 122.642 18.17 122.394C18.1213 122.146 18.1474 121.889 18.2449 121.656C18.3424 121.423 18.507 121.224 18.7177 121.084C18.9285 120.944 19.1759 120.87 19.4287 120.871C19.5962 120.871 19.762 120.905 19.9166 120.969C20.0713 121.033 20.2117 121.127 20.3298 121.246C20.448 121.365 20.5415 121.505 20.6051 121.66C20.6687 121.815 20.701 121.981 20.7003 122.149Z" fill="white"/>
<path d="M19.4286 134.715C19.4286 134.968 19.3537 135.215 19.2134 135.425C19.073 135.635 18.8736 135.798 18.6402 135.895C18.4069 135.992 18.1501 136.017 17.9023 135.968C17.6546 135.918 17.427 135.797 17.2484 135.618C17.0698 135.439 16.9482 135.212 16.8989 134.964C16.8497 134.716 16.8749 134.46 16.9716 134.226C17.0683 133.993 17.232 133.793 17.442 133.653C17.652 133.513 17.8989 133.438 18.1515 133.438C18.4902 133.438 18.815 133.572 19.0545 133.812C19.294 134.051 19.4286 134.376 19.4286 134.715Z" fill="#E6FBFC"/>
<path d="M18.2843 134.356C18.2843 134.465 18.2519 134.572 18.1911 134.663C18.1304 134.754 18.044 134.825 17.943 134.866C17.842 134.908 17.7308 134.919 17.6236 134.898C17.5163 134.877 17.4178 134.824 17.3405 134.747C17.2632 134.669 17.2105 134.571 17.1892 134.463C17.1679 134.356 17.1788 134.245 17.2207 134.144C17.2625 134.043 17.3334 133.957 17.4243 133.896C17.5152 133.835 17.6221 133.803 17.7314 133.803C17.8781 133.803 18.0187 133.861 18.1224 133.965C18.2261 134.068 18.2843 134.209 18.2843 134.356Z" fill="white"/>
<path d="M32.0448 91.9847C34.9913 91.9847 37.3799 89.5961 37.3799 86.6496C37.3799 83.7031 34.9913 81.3145 32.0448 81.3145C29.0983 81.3145 26.7097 83.7031 26.7097 86.6496C26.7097 89.5961 29.0983 91.9847 32.0448 91.9847Z" fill="#E6FBFC"/>
<path d="M30.2756 87.4844C31.558 87.4844 32.5976 86.4448 32.5976 85.1624C32.5976 83.88 31.558 82.8404 30.2756 82.8404C28.9932 82.8404 27.9536 83.88 27.9536 85.1624C27.9536 86.4448 28.9932 87.4844 30.2756 87.4844Z" fill="white"/>
<path d="M40.6752 73.3312C42.2965 73.3312 43.6108 72.0169 43.6108 70.3956C43.6108 68.7742 42.2965 67.4599 40.6752 67.4599C39.0538 67.4599 37.7395 68.7742 37.7395 70.3956C37.7395 72.0169 39.0538 73.3312 40.6752 73.3312Z" fill="#E6FBFC"/>
<path d="M40.979 69.5773C40.979 69.8299 40.9041 70.0768 40.7638 70.2868C40.6234 70.4969 40.424 70.6606 40.1906 70.7572C39.9573 70.8539 39.7005 70.8792 39.4528 70.8299C39.205 70.7806 38.9775 70.659 38.7989 70.4804C38.6203 70.3018 38.4986 70.0742 38.4493 69.8265C38.4001 69.5787 38.4254 69.322 38.522 69.0886C38.6187 68.8552 38.7824 68.6558 38.9924 68.5155C39.2024 68.3751 39.4493 68.3002 39.7019 68.3002C40.0406 68.3002 40.3654 68.4348 40.605 68.6743C40.8445 68.9138 40.979 69.2386 40.979 69.5773Z" fill="white"/>
<path d="M48.0003 83.4209C48.0003 83.8815 47.8636 84.3317 47.6076 84.7146C47.3516 85.0974 46.9878 85.3958 46.5622 85.5718C46.1365 85.7478 45.6683 85.7935 45.2166 85.7033C44.765 85.613 44.3503 85.3908 44.025 85.0647C43.6997 84.7387 43.4784 84.3234 43.3893 83.8716C43.3001 83.4197 43.347 82.9515 43.524 82.5263C43.701 82.1011 44.0002 81.738 44.3837 81.4829C44.7672 81.2278 45.2177 81.0922 45.6783 81.0933C46.2946 81.0948 46.8852 81.3407 47.3205 81.777C47.7558 82.2133 48.0003 82.8045 48.0003 83.4209Z" fill="#E6FBFC"/>
<path d="M45.916 82.774C45.916 82.9741 45.8567 83.1697 45.7455 83.3361C45.6344 83.5025 45.4763 83.6322 45.2915 83.7088C45.1066 83.7853 44.9032 83.8054 44.7069 83.7663C44.5107 83.7273 44.3304 83.6309 44.1889 83.4894C44.0474 83.3479 43.9511 83.1677 43.912 82.9714C43.873 82.7752 43.893 82.5717 43.9696 82.3869C44.0462 82.202 44.1758 82.044 44.3422 81.9328C44.5086 81.8216 44.7042 81.7623 44.9043 81.7623C45.1726 81.7623 45.43 81.8689 45.6197 82.0586C45.8094 82.2484 45.916 82.5057 45.916 82.774Z" fill="white"/>
</svg>
