<svg width="230" height="233" viewBox="0 0 230 233" fill="none" xmlns="http://www.w3.org/2000/svg">
<path fill-rule="evenodd" clip-rule="evenodd" d="M62.9086 128.287C63.3816 131.465 64.5705 134.259 65.574 137.234C66.0482 138.64 66.788 140.074 67.5141 141.366C67.9841 142.203 68.5801 144.191 69.4425 143.03C69.5857 143.636 69.3975 143.933 69.5965 144.494C69.8772 145.285 71.3334 146.27 71.9665 146.879C72.5767 147.466 73.2479 147.917 73.9048 148.436C74.0347 148.538 74.3045 148.455 74.4096 148.574C74.6056 148.796 74.4226 149.105 74.5053 149.209C75.5348 150.502 77.3209 151.421 78.6593 152.372C80.5723 153.73 82.4758 155.088 84.3402 156.511C85.8136 157.636 87.2191 158.823 88.6805 159.949C89.3807 160.489 89.9102 161.024 90.4306 161.727C91.0764 162.6 91.174 162.639 90.7249 163.542C89.9214 165.154 88.473 166.194 87.5055 167.641C86.403 169.291 85.6937 171.136 84.1958 172.513C83.5258 171.002 82.6604 173.21 83.7726 172.977C83.2558 174.509 82.101 175.814 81.3304 177.256C80.4194 178.96 79.4235 180.507 78.3451 182.109C78.2352 181.712 78.1255 181.315 78.0153 180.919C76.9665 181.169 77.8063 181.938 77.8836 182.257C77.9492 182.527 78.1769 182.555 78.0144 183.143C77.8924 183.584 77.4689 183.959 77.2003 184.326C76.5962 185.15 76.0338 185.998 75.4635 186.846C74.9019 187.68 74.7059 188.368 74.344 189.183C74.0211 189.91 73.7239 189.772 73.2038 190.308C72.6658 190.861 72.1305 191.826 71.6515 192.463C70.2254 194.359 68.9441 196.531 67.9705 198.689C67.0426 200.746 65.3293 202.192 64.5461 204.374C64.1455 205.487 63.999 206.659 63.652 207.784C63.3273 208.835 62.7956 209.812 62.5947 210.903C62.4277 211.809 62.5352 212.858 62.4543 213.652C62.3881 214.3 62.1166 215.296 62.1969 216.21C62.3673 218.137 63.1665 219.809 64.1205 221.414C59.7681 222.889 54.8164 223.303 50.2498 223.196C47.9161 223.142 45.2564 223.12 42.9728 223.659C41.6522 223.972 40.6379 224.36 39.2508 224.252C37.865 224.143 36.4803 224.013 35.0951 223.893C35.4995 223.079 36.8201 222.052 37.5614 221.427C37.9894 221.066 38.695 220.98 39.0225 220.632C39.3976 220.233 39.5121 219.237 39.6456 218.757C40.6729 215.071 41.4314 211.352 42.0748 207.581C43.2115 200.919 43.6522 194.135 44.072 187.432C44.1022 186.949 44.3378 186.366 44.3258 185.909C44.3067 185.169 44.1593 184.753 44.2155 184.048C44.2511 183.602 44.7837 183.006 44.7607 182.612C44.7402 182.266 44.1472 182.529 44.1481 182.009C44.1497 181.262 45.2183 180.185 45.4416 179.514C45.5277 179.254 45.2097 178.906 45.1783 178.614L45.1767 178.562C45.1905 178.57 45.4256 177.512 45.4352 177.469C45.5132 177.13 45.8185 177.024 45.8031 176.599C45.7898 176.233 45.2531 175.755 45.5431 175.375C45.7412 175.115 46.4625 175.532 46.6254 175.236C46.835 174.856 45.914 173.557 46.0161 172.968C46.1825 172.009 46.8667 171.037 47.0996 170.052C47.2032 169.613 47.0884 168.927 47.4291 168.564C47.9849 167.972 48.4685 168.579 49.2705 168.381C48.4525 167.686 48.2939 167.078 48.5356 166.065C48.7244 165.274 49.1007 164.395 49.9659 165.185C49.8369 164.004 49.8414 163.82 50.7231 162.925C51.1508 162.491 51.6118 161.762 52.1232 161.469C52.2778 161.306 52.4328 161.143 52.5877 160.981C52.7974 161.199 53.0466 161.323 53.3354 161.352C55.808 161.22 57.0432 160.714 59.3144 162.197C60.2722 162.822 61.227 163.29 62.0504 164.105C62.9687 165.013 63.7094 166.082 64.6932 166.93C65.793 167.88 66.8783 168.659 67.8594 169.747C68.6704 170.647 69.4506 171.667 70.5375 172.217C70.6205 170.915 69.9089 169.751 69.2866 168.614C69.212 168.478 68.6704 168.112 68.6822 168.152C68.6163 167.924 68.8659 167.727 68.7885 167.525C69.7307 168.377 70.7045 169.641 71.7835 170.279C73.5445 171.32 72.7621 169.289 72.4259 168.244C71.4681 165.266 69.7328 162.412 67.7265 160.008C64.2159 155.803 58.3598 151.108 52.7557 153.755C47.2014 156.378 44.2753 160.784 42.6816 166.645C40.8321 173.447 39.983 179.947 39.8072 186.994C39.7063 191.028 39.2949 195.029 38.8708 199.041C38.4567 202.955 38.2872 207.197 37.4974 211.04C37.0017 210.318 36.7093 209.774 36.4619 208.963C36.3613 208.635 36.4876 208.314 36.316 207.992C36.2368 207.843 35.8357 207.861 35.7608 207.726C35.1455 206.616 34.281 205.089 33.9983 203.811C33.849 203.138 33.9853 202.745 33.6971 202.132C33.4265 201.558 33.2902 202.103 33.1872 201.394C33.1727 201.296 33.6264 201.134 33.4866 200.675C33.1335 199.515 32.8843 200.614 32.7148 200.607C32.3653 200.592 33.1546 198.214 33.0924 197.84C33.0208 197.411 32.8205 197.645 32.723 197.332C32.6351 197.049 32.5275 196.641 32.4614 196.248C32.2611 195.051 31.8074 194.66 31.7869 193.365C31.7624 191.802 31.1831 190.796 30.9236 189.303C30.8756 189.028 31.1761 188.719 31.1217 188.478C31.0091 187.978 30.6463 187.562 30.5052 187.033C30.2104 185.926 30.7988 184.972 30.717 183.906C30.7303 184.08 30.3859 183.121 30.3645 183.036C30.2403 182.549 30.2935 181.896 30.1953 181.365C30.1029 180.867 29.7963 180.203 30.0709 179.737C30.2584 179.419 30.6804 179.506 30.926 179.151C30.0237 178.86 30.2131 179.177 29.8872 178.182C29.5761 177.231 29.5459 176.435 30.5765 177.063C30.3161 176.422 29.8313 175.635 29.7256 174.948C29.6292 174.321 29.86 173.714 29.7939 173.089C29.6172 171.417 29.1015 170.399 30.0524 168.776C28.7998 168.135 29.342 165.904 29.1478 164.691C28.9375 163.374 28.4246 162.115 29.4133 161.25C28.1597 160.349 28.7971 157.428 28.8203 156.034C28.8427 154.7 28.7385 153.347 28.7542 151.797C28.7635 150.921 28.5167 150.318 28.3077 149.452C28.038 148.335 28.3123 147.478 28.2201 146.398C28.1467 145.54 27.8226 144.678 27.7788 143.764C27.7338 142.832 27.8114 141.785 27.68 140.87C27.5707 140.111 27.3895 139.569 27.3704 138.75C27.365 138.507 27.2466 138.071 27.2964 137.845C27.2946 137.854 27.6344 137.065 27.632 137.413C27.642 136.116 26.9925 134.848 27.333 133.268C27.613 131.97 27.8477 132.183 29.1568 132.263C30.1896 132.327 31.222 132.395 32.2569 132.399C33.5974 132.404 37.9085 131.475 38.8787 132.419C39.6822 133.202 39.2152 136.906 39.2698 138.024C39.3583 139.845 37.6148 140.402 37.1315 142.261C36.21 145.807 37.7324 150.487 41.8863 150.79C45.7612 151.073 49.4783 147.887 48.9464 143.971C48.7328 142.399 48.0088 140.689 46.642 139.769C45.3198 138.879 42.5113 139.55 41.5906 138.477C41.1611 137.977 41.3314 136.032 41.2816 135.38C41.2091 134.43 40.7741 132.53 41.4 132.081C42.1065 131.572 44.2889 131.562 45.0954 131.56C46.2384 131.557 47.2787 131.558 48.413 131.366C50.9231 130.941 53.4257 130.959 55.8917 130.402C58.3399 129.851 60.6021 129.273 62.9086 128.287ZM92.8245 128.287C93.3344 128.275 94.4299 132.495 94.7187 133.24C95.508 135.275 95.8314 137.327 96.2707 139.467C96.7215 141.664 97.1256 143.897 97.7097 146.061C98.1484 147.688 98.05 149.263 98.6403 150.9C98.4842 151.914 98.6243 153.665 97.5046 154.102C96.4921 154.496 95.8341 153.533 95.4581 152.7C94.4426 150.447 94.7687 147.441 94.3986 145.02C93.9617 142.161 93.936 139.344 93.5934 136.482C93.2915 133.959 92.2693 130.773 92.8245 128.287ZM48.624 70.4499C49.7342 71.703 51.3647 71.1771 52.8272 71.0382C52.2067 72.4483 51.3161 73.9574 51.2829 75.5363C51.2659 76.3555 51.7067 77.0828 51.7019 77.8642C51.6968 78.6391 51.068 79.3621 50.7699 80.0815C49.4306 83.3094 49.1067 87.6825 49.0566 91.1487C48.9533 98.3193 51.0998 105.957 55.665 111.579C56.6284 112.765 57.7112 113.861 58.9217 114.798C59.5801 115.306 62.612 116.515 62.754 117.229C63.029 118.613 59.9175 118.476 59.068 118.6C57.2816 118.86 55.5154 119.234 53.7263 119.475C46.5563 120.439 39.4784 121.209 32.2501 120.82C31.4504 120.777 29.955 121.175 29.1991 120.855C28.3109 120.479 28.6139 119.731 28.6353 118.856C28.6906 116.609 28.3677 114.4 28.1792 112.169C28.0266 110.364 28.4399 110.604 29.7634 109.605C31.132 108.572 32.4701 106.654 32.9169 105.01C34.19 106.036 33.2679 106.588 33.4492 107.905C33.6703 109.512 34.7564 109.249 35.4727 108.173C36.5839 106.506 36.4857 103.869 35.4471 102.202C34.5169 100.71 31.1979 98.4179 29.3148 99.1005C26.8094 100.009 29.5362 103.059 30.7217 103.719C30.4293 104.563 28.8109 105.305 28.0897 105.768C27.0885 106.411 25.7895 106.784 24.6321 107.141C21.5442 108.091 18.5433 108.229 15.3566 107.763C12.2944 107.316 8.78781 106.319 6.8123 103.809C5.95793 102.723 5.17244 101.071 5.99207 99.712C6.73043 98.4869 8.55579 98.4022 9.45336 97.2153C9.84097 96.7033 10.0274 96.0236 10.3836 95.5276C10.963 94.7213 10.7298 94.8648 11.8192 94.9573C13.5826 95.1068 15.463 95.2204 17.1995 94.7958C18.5046 94.4763 19.7756 93.8796 21.0526 93.4989C22.4082 93.0948 23.6934 92.2452 24.7417 91.3296C27.1595 89.2171 29.5266 86.9215 31.7652 84.6192C33.9909 82.3308 35.4162 79.3853 37.4996 76.9586C39.8609 74.2087 42.1313 70.6937 45.592 69.1798C47.5802 68.3103 47.5439 69.2298 48.624 70.4499ZM57.0313 79.5912C57.3681 79.9433 57.1537 81.9621 57.475 82.6062C58.7083 85.081 60.8658 84.5345 63.0979 84.0144C63.2902 85.9977 63.4391 88.2315 64.2395 90.0798C64.5971 90.9052 65.1621 91.6139 65.4507 92.4765C65.6333 93.023 65.5597 93.7168 65.7663 94.2248C65.9894 94.774 66.5551 95.1974 66.8857 95.7388C67.2852 96.3928 67.4947 97.0034 68.0204 97.5757C69.1708 98.8277 70.733 99.8889 71.6132 101.382C71.9745 101.995 72.0381 102.449 72.0272 103.163C72.0236 103.419 71.8434 104.359 71.9236 104.549C72.217 105.243 73.2723 105.423 73.3889 106.321C73.4549 106.825 73.1803 106.765 73.0867 107.185C72.9747 107.691 73.0549 108.038 72.8699 108.601C72.5762 109.495 71.2801 111.178 71.4146 111.948C69.5078 112.997 66.1544 113.663 64.0181 113.183C61.8336 112.693 59.6497 110.213 58.2402 108.588C54.9307 104.774 53.0039 98.7496 52.8232 93.76C52.7314 91.2282 53.0687 88.6843 53.188 86.1566C53.2553 84.7325 52.9512 80.7209 54.158 79.7234C54.4278 79.5005 56.7948 79.3437 57.0313 79.5912ZM39.2256 84.3673C36.2821 84.536 33.7555 89.1445 34.3002 91.8365C34.7477 94.0459 35.5023 92.3374 36.0755 91.3883C36.7519 90.2681 37.976 88.913 39.4292 89.2006C41.0443 89.5203 41.4561 91.4875 42.1147 92.7346C43.3156 95.0089 43.6896 92.5667 43.9557 91.1864C43.744 88.4869 42.7527 84.1653 39.2256 84.3673Z" fill="#FEAE11"/>
<path fill-rule="evenodd" clip-rule="evenodd" d="M216.666 222.076C215.131 222.552 213.692 223.254 212.213 223.881C210.535 224.592 209.363 224.717 207.53 224.714C200.433 224.704 193.409 225.068 186.299 225.211C184.357 225.251 182.386 225.27 180.444 225.235C179.66 225.22 178.891 225.131 178.11 225.067C177.606 225.026 175.408 225.328 175.114 225.151C174.29 224.655 174.78 221.462 174.68 220.438C174.506 218.662 174.056 216.949 173.429 215.28C171.187 209.306 167.417 203.479 162.65 199.216C169.096 196.509 176.127 192.94 183.28 194.546C186.004 195.157 189.615 195.958 191.018 198.593C192.516 201.407 193.827 204.501 195.539 207.195C197.452 210.205 199.483 212.785 202.253 215.043C203.345 215.934 208.852 221.408 208.016 217.182C207.748 215.827 206.756 214.567 205.965 213.461C205.562 212.898 203.391 211.052 203.729 210.4C204.108 209.668 208.023 209.153 208.862 208.92C210.595 208.44 212.318 207.927 214.044 207.423C213.42 208.599 210.025 213.05 212.194 214.188C212.991 214.606 215.053 213.125 215.926 212.865C217.414 212.422 218.774 212.714 220.237 213.153C220.199 213.871 218.788 213.88 218.319 214.371C217.633 215.088 217.152 217.023 217.69 217.883C218.691 219.485 222.568 217.85 224.302 218.459C222.353 220.47 219.296 221.26 216.666 222.076ZM119.824 155.944C119.845 155.986 119.808 156.043 119.575 156.245C119.503 155.99 119.377 155.934 119.221 156.004C119.346 155.868 119.45 155.796 119.575 156.245C119.673 156.16 119.754 156.055 119.824 155.944ZM120.417 155.101C120.371 155.255 120.265 155.327 120.103 155.323C120.112 155.296 120.119 155.271 120.126 155.251C120.233 154.916 120.376 154.973 120.328 154.356C120.393 154.459 120.442 154.563 120.406 154.667C120.508 154.823 120.511 154.968 120.417 155.101ZM103.166 184.088C103.33 183.693 103.373 183.233 103.585 182.87C103.378 183.238 103.374 183.693 103.166 184.088ZM169.845 224.899C167.277 224.797 164.773 224.842 162.205 224.954C156.717 225.193 151.205 225.228 145.728 225.669C143.048 225.884 140.472 225.966 137.785 225.876C135.435 225.797 133.077 225.881 130.735 225.684C128.163 225.467 125.755 224.757 123.159 224.718C120.678 224.681 117.722 224.394 115.315 224.757C114.899 224.819 114.676 225.084 114.185 225.148C113.508 225.236 112.554 224.96 111.861 224.913C110.643 224.831 109.298 224.966 108.11 224.682C107.702 224.585 107.417 224.435 107.021 224.276C106.664 224.132 105.864 224.021 105.667 223.969C106.799 223.548 104.288 222.688 104.086 222.641C104.035 222.812 104.148 223.052 104.333 223.284C103.691 222.792 104.379 222.974 103.328 222.474C102.886 222.264 102.051 222.129 101.556 222.073C101.079 222.019 100.822 222.076 100.605 222.064C100.649 222.015 100.692 221.95 100.734 221.863C101.085 221.14 100.016 220.314 99.4159 220.8C99.4853 220.942 99.5978 221.203 99.7338 221.459C99.7278 221.452 99.7227 221.447 99.7166 221.44C99.494 221.182 99.0753 220.525 98.6584 220.083C99.1869 219.791 98.5405 219.394 98.2967 218.987C98.1299 219.079 97.945 219.157 97.8494 219.284C97.9882 218.995 98.3323 218.732 98.1305 218.169C98.0729 218.007 97.9203 217.765 97.7287 217.594C97.9106 217.736 98.0998 217.894 98.3447 217.86C98.0385 217.397 97.926 217.222 97.8093 216.757C97.7272 216.43 98.1848 216.114 97.7502 215.818C97.7634 215.51 97.9468 214.094 97.1776 214.588C97.1776 214.588 97.1776 214.588 97.1773 214.588C97.1776 214.588 97.1776 214.587 97.1779 214.586C97.6702 213.081 98.5076 211.526 99.1299 210.054C100.58 206.625 102.07 203.171 103.587 199.772C106.095 194.15 108.715 188.542 111.601 183.071C114.462 177.647 117.586 172.402 120.287 166.903C122.892 161.599 125.931 156.523 128.554 151.226C129.789 148.732 131.445 146.669 131.867 143.771C132.003 142.832 132.046 140.874 130.625 141.227C129.702 141.455 128.409 143.768 127.813 144.52C127.279 143.787 124.266 139.478 123.458 142.045C122.765 144.246 127.104 145.205 125.373 147.421C125.201 147.641 124.49 147.863 124.257 148.066C123.802 148.462 123.386 149.16 123.035 149.637C122.235 150.724 121.573 151.88 120.834 153.005C120.695 153.217 120.186 153.696 120.147 153.943C120.126 154.075 120.236 154.21 120.323 154.347C119.721 154.879 118.962 155.35 118.821 156.212C118.863 156.231 118.901 156.233 118.938 156.226C118.379 156.811 117.671 158.229 117.57 158.377C116.816 159.473 116.076 160.62 115.332 161.777C114.929 162.402 114.225 163.137 113.994 163.84C113.914 164.083 114.148 164.518 113.93 164.746C113.355 165.343 112.794 165.216 112.365 166.418C112.196 166.891 112.181 167.554 111.909 167.96C111.473 168.611 110.85 168.918 110.443 169.619C109.671 170.948 108.745 172.409 108.258 173.75C108.257 173.756 108.256 173.761 108.254 173.766C108.238 173.661 108.215 173.547 108.188 173.423C107.912 173.918 107.636 174.414 107.361 174.909C107.838 174.816 108.093 174.686 108.209 174.474C108.195 174.545 108.173 174.619 108.129 174.696C107.886 174.808 107.629 174.879 107.361 174.909C107.176 175.214 107.003 175.525 106.842 175.843C106.763 176.004 106.497 176.983 106.385 177.725C106.344 177.438 106.303 177.179 106.298 177.145C105.949 177.818 105.599 178.49 105.25 179.163C105.884 178.676 105.848 178.593 106.452 178.581C105.691 178.596 104.539 179.665 104.433 180.692C104.416 180.859 104.518 181.042 104.608 181.214C104.588 181.211 104.567 181.209 104.543 181.207C103.745 181.139 103.979 181.3 103.676 181.964C103.792 181.918 104.463 181.656 104.715 181.452C104.743 181.539 104.747 181.619 104.705 181.687C104.507 182.001 102.893 181.798 103.929 182.495C103.068 181.916 102.638 183.817 102.931 184.471C102.699 184.805 102.422 185.114 102.163 185.424C101.524 186.185 101.171 186.763 100.753 187.69C100.041 189.269 99.1908 190.836 98.4123 192.385C98.1167 192.974 97.7722 193.475 97.4096 194.022C96.7665 194.992 96.8796 194.75 97.387 195.807C97.1966 195.745 96.9149 195.895 96.6425 196.112C96.7906 195.861 96.9794 195.674 97.387 195.807C96.7432 194.466 96.1906 196.1 95.8944 196.868C95.9077 196.868 95.9185 196.865 95.9309 196.864C95.8905 196.924 95.86 196.977 95.8416 197.019C95.539 197.642 95.1822 198.025 95.4404 198.678C95.5146 198.314 95.8096 198.033 95.9348 197.72C95.7584 198.483 94.9267 199.396 94.6757 199.901C94.4673 200.32 94.4377 200.761 94.1813 201.217C93.9406 201.645 93.7237 201.934 93.5388 202.424C92.6447 204.794 92.2094 207.434 91.6453 209.923C90.9784 212.865 90.7039 215.991 90.5612 219.002C90.5196 219.877 90.4966 220.65 90.8119 221.481C90.8577 221.602 91.3485 222.243 91.3358 222.477C91.268 223.702 88.9676 223.447 88.0828 223.412C86.6762 223.356 85.7188 223.583 84.3677 223.778C83.1213 223.959 81.8981 223.86 80.6323 224.166C78.5301 224.674 75.3999 225.478 73.3674 224.362C72.3849 223.823 71.1472 222.259 70.4341 221.381C69.5563 220.301 69.261 219.201 69.1038 217.825C68.8353 215.471 68.8169 212.87 69.6353 210.621C73.4379 200.167 79.9612 190.665 85.587 181.152C90.8659 172.226 96.784 163.764 102.074 154.862C104.87 150.155 108.234 145.499 111.56 141.15C114.96 136.704 117.386 131.867 119.783 126.836C122.267 128.153 124.897 129.508 127.675 130.103C129.254 130.442 130.823 130.339 132.415 130.448C133.589 130.529 134.571 130.806 135.767 130.836C141.009 130.97 147.066 130.342 152.077 128.794C153.28 128.422 154.354 128.037 155.482 127.501C156.921 126.818 157.309 126.528 157.391 128.116C157.549 131.191 158.051 134.18 158.287 137.236C158.518 140.216 159.118 143.153 159.648 146.097C159.917 147.588 160.207 149.078 160.427 150.576C160.595 151.714 161.1 153.295 160.899 154.432C160.678 155.686 159.489 156.96 158.808 158.031C158.118 159.117 157.424 160.201 156.735 161.289C155.444 163.328 154.158 165.264 152.633 167.135C149.806 170.604 147.399 174.232 144.718 177.814C141.871 181.619 139.505 185.728 136.711 189.571C135.236 191.601 133.727 193.515 132.76 195.802C131.957 197.698 130.342 199.443 129.355 201.32C128.059 203.784 126.41 206.041 125.122 208.517C124.223 210.247 122.488 212.007 122.306 214.017C122 217.389 125.207 214.019 125.949 213.079C126.945 211.817 128.036 209.61 129.532 208.926C130.6 208.438 132.16 208.491 133.32 208.109C134.535 207.708 135.727 207.293 136.955 206.926C139.345 206.212 141.65 205.204 143.974 204.298C146.379 203.359 148.783 202.412 151.143 201.368C152.235 200.885 153.156 200.637 154.323 200.427C154.825 200.336 156.622 199.487 157.017 199.559C157.682 199.68 158.598 201.634 159.102 202.136C159.878 202.91 160.752 203.543 161.477 204.376C162.906 206.017 164.42 207.766 165.659 209.549C168.428 213.534 171.017 217.887 172.002 222.686C172.444 224.84 171.928 224.983 169.845 224.899ZM97.8397 219.691C97.8228 219.654 97.8123 219.62 97.8054 219.586C97.8141 219.62 97.8219 219.653 97.8397 219.691C98.1676 219.496 98.2545 219.599 98.288 219.758C98.123 219.652 97.9691 219.614 97.8397 219.691ZM97.0763 217.466C97.0627 217.406 97.0566 217.351 97.0545 217.298C97.0594 217.354 97.0636 217.41 97.0763 217.466C97.2557 217.346 97.4054 217.38 97.5493 217.466C97.396 217.383 97.231 217.363 97.0763 217.466ZM97.4057 216.011C97.5064 216.003 97.621 215.948 97.7502 215.818C97.6443 215.925 97.5444 216.037 97.4536 216.154C97.4551 216.139 97.4576 216.126 97.4585 216.111C97.4606 216.083 97.4376 216.048 97.4057 216.011ZM64.7609 203.815C64.0146 205.575 63.7039 207.5 63.0699 209.302C62.5851 210.681 62.3915 212.043 62.2645 213.484C62.7067 213.81 62.6967 214.097 62.2346 214.346C62.2017 214.659 62.1906 214.974 62.2011 215.289C62.0811 216.207 62.2581 217.006 62.501 217.886C62.8859 219.281 63.3736 220.283 64.0895 221.489C59.7451 222.963 54.7956 223.378 50.2376 223.271C47.774 223.213 45.0106 223.208 42.6101 223.816C40.0252 224.47 37.7586 224.197 35.1031 223.968C35.4911 223.187 36.9737 221.883 37.7245 221.34C38.1067 221.064 38.7353 221.017 39.0252 220.707C39.4388 220.266 39.4874 219.41 39.6478 218.832C40.6722 215.146 41.4303 211.429 42.0737 207.659C43.2073 201.013 43.734 194.209 44.0682 187.513C44.0966 186.946 44.3892 186.311 44.375 185.774C44.3563 185.069 44.1548 184.839 44.2115 184.13C44.2483 183.668 44.8022 183.041 44.762 182.63C44.7367 182.373 44.1062 182.595 44.1443 182.091C44.2031 181.315 45.2076 180.293 45.4356 179.596C45.537 179.287 45.159 178.978 45.1708 178.64C45.1674 178.736 45.4202 177.593 45.4296 177.551C45.5059 177.223 45.8136 177.085 45.797 176.682C45.7816 176.316 45.2486 175.837 45.5373 175.458C45.8293 175.074 46.4341 175.655 46.6181 175.319C46.8274 174.939 45.9074 173.64 46.0097 173.051C46.1885 172.021 46.8899 170.912 47.1644 169.865C47.2672 169.473 47.1016 168.988 47.4208 168.648C47.9764 168.057 48.4585 168.663 49.2597 168.465C48.4648 167.79 48.2898 167.139 48.5257 166.149C48.717 165.346 49.0859 164.477 49.9541 165.27C49.8397 164.224 49.7173 164.118 50.4687 163.244C51.1172 162.489 51.9579 161.586 52.7344 161.008C53.8948 160.143 55.7473 159.699 57.1237 159.597C58.6259 159.487 60.4726 160.292 61.6096 161.427C62.9923 162.808 64.7808 163.815 66.3497 165.135C68.0251 166.544 69.4634 168.219 71.073 169.713C71.4033 170.019 72.0117 170.877 72.5221 170.73C73.3547 170.489 72.6823 169.246 72.4998 168.693C71.2021 164.762 68.8697 160.8 65.6614 158.117C64.0068 156.733 62.3607 154.983 60.4374 153.975C58.8836 153.161 57.67 153.289 56.0182 153.231C54.6061 153.181 54.3159 153.098 53.0569 153.692C52.1643 154.113 51.2804 154.524 50.4382 155.04C49.0913 155.863 47.7022 156.863 46.7068 158.107C44.0568 161.42 43.0224 165.632 41.9811 169.668C40.8351 174.108 40.0463 178.446 39.9072 183.053C39.7661 187.741 39.5489 192.359 39.0868 197.028C38.8463 199.455 38.5697 201.878 38.256 204.298C37.967 206.529 37.9519 208.926 37.5025 211.117C36.9363 210.292 36.7604 209.655 36.4479 208.766C36.2371 208.168 36.0232 208.188 35.7179 207.747C35.0712 206.813 34.2627 205.042 34.0082 203.889C33.8522 203.184 33.9964 202.831 33.7074 202.211C33.6181 202.019 33.1328 202.169 33.0549 201.866C32.9991 201.648 33.3032 201.48 33.2896 201.406C33.2579 201.234 33.73 201.044 33.3222 200.504C32.7427 199.737 33.0392 200.699 32.7264 200.686C32.4658 200.675 33.248 198.028 33.156 197.644C33.1234 197.509 32.68 197.491 32.6444 197.364C32.5367 196.983 32.5611 196.43 32.4562 196.016C32.1994 195.005 31.8185 194.6 31.7998 193.445C31.775 191.92 31.2097 190.839 30.9376 189.384C30.8852 189.104 31.1931 188.801 31.1355 188.559C31.0188 188.067 30.6541 187.635 30.5199 187.114C30.2613 186.11 30.6064 184.693 30.5358 183.877C30.4737 183.162 30.2734 182.003 30.1416 181.115C29.9271 179.671 30.3126 180.142 30.9401 179.233C30.0701 178.953 30.1808 179.199 29.9027 178.265C29.582 177.185 29.6116 176.548 30.591 177.146C30.3307 176.504 29.8475 175.719 29.7413 175.031C29.6427 174.393 29.8761 173.806 29.8095 173.172C29.6285 171.457 29.093 170.525 30.0677 168.86C28.8149 168.219 29.3606 166.009 29.1642 164.776C28.9528 163.445 28.4391 162.202 29.4294 161.336C28.411 160.603 28.8143 158.501 28.8185 157.379C28.8203 156.87 28.9929 155.974 28.9492 155.522C28.9187 155.204 28.7024 154.99 28.6397 154.62C28.4083 153.248 28.9193 151.89 28.6119 150.525C28.2653 148.987 28.2249 147.676 28.106 146.169C27.9911 144.708 27.7652 143.19 27.668 141.692C27.5962 140.581 27.1628 139.379 27.3625 138.228C27.3782 138.137 27.6427 137.318 27.6502 137.503C27.6379 137.207 27.4225 136.841 27.4125 136.664C27.3417 135.332 27.3163 134.245 27.3733 132.893C27.3706 132.893 27.3676 132.892 27.3649 132.893C27.5299 132.792 27.6189 132.584 27.6258 132.259C28.8722 132.139 30.2357 132.443 31.4954 132.476C32.8528 132.513 34.206 132.445 35.562 132.382C36.4343 132.342 38.3142 131.929 38.9785 132.657C39.4596 133.185 39.157 135.9 39.189 136.606C39.227 137.441 39.6493 138.75 39.1613 139.481C38.8584 139.934 38.174 140.115 37.821 140.612C37.6063 140.914 37.4316 141.422 37.3176 141.751C36.9728 142.741 36.8355 143.81 36.8883 144.856C37.1372 149.752 41.0608 152 45.4661 150.027C49.3037 148.309 50.3471 143.111 47.0498 140.198C46.2736 139.512 45.4462 139.338 44.4556 139.169C43.826 139.062 42.1078 139.128 41.6963 138.678C41.2879 138.232 41.3875 136.842 41.3422 136.263C41.2695 135.334 40.8961 133.953 41.0985 133.057C40.7667 132.31 40.9881 131.994 41.7633 132.109C42.0089 132.06 42.2544 132.01 42.4996 131.961C43.118 131.849 43.7256 131.714 44.3536 131.67C45.473 131.594 46.5644 131.726 47.6844 131.577C48.7831 131.43 49.8599 131.155 50.9607 131.013C52.1302 130.862 53.2789 131.03 54.4363 130.831C56.8387 130.42 59.4199 129.867 61.6675 128.922C62.2696 128.67 63.2898 127.941 63.9576 128.062C64.7576 128.206 64.5437 128.715 64.7742 129.475C66.052 133.695 68.7071 137.865 71.5173 141.22C74.17 144.387 77.6671 146.94 80.8299 149.596C82.7475 151.207 84.5888 152.9 86.3691 154.66C87.6611 155.937 89.0475 157.935 90.7162 158.672C91.0966 158.686 92.5633 158.518 92.8314 158.793C93.1409 159.109 93.1219 159.286 92.9985 159.484C93.353 158.55 91.6664 158.707 90.7162 158.672C90.8239 158.853 91.8909 160.992 92.1548 159.802C92.3081 159.893 92.4613 159.985 92.6145 160.076C91.8562 161.751 90.8743 163.431 89.8077 164.93C89.0303 166.023 88.0261 166.814 87.3284 167.947C86.4479 169.377 85.7142 170.861 84.5987 172.134C82.3741 174.675 81.1358 178.092 79.1962 180.911C78.2641 182.266 77.7775 183.526 76.8074 184.874C76.0487 185.93 74.8198 187.265 74.3776 188.479C74.2011 188.965 74.3905 189.386 74.0672 189.836C73.863 190.12 73.2579 190.428 72.9725 190.723C71.8392 191.894 70.9553 193.564 70.0664 194.941C69.1195 196.408 68.4598 197.929 67.6577 199.457C66.8351 201.025 65.4734 202.135 64.7609 203.815ZM35.2666 210.507C34.6772 210.516 34.4564 210.519 34.3906 210.26C34.3713 210.183 34.3653 210.081 34.368 209.95C34.3653 210.081 34.3713 210.183 34.3906 210.26C34.4564 210.519 34.6772 210.515 35.2666 210.506V210.507ZM35.3402 208.312C35.4012 208.476 35.0341 208.756 34.0582 208.653C35.0247 208.755 35.3945 208.478 35.3402 208.312ZM32.9409 213.822C33.0284 213.9 33.1132 213.98 33.1958 214.064C33.1135 213.98 33.0284 213.9 32.9409 213.822ZM26.8554 225.346C26.0608 225.068 23.9936 224.577 22.6476 223.996C23.2479 224.165 23.873 224.303 24.1134 224.387C25.0271 224.707 25.9411 225.027 26.8554 225.346C28.1501 220.679 33.0112 218.9 37.1707 217.177C35.1668 217.093 34.451 215.353 33.2398 214.11C34.4486 215.35 35.1758 217.093 37.1707 217.177C33.0118 218.9 28.1501 220.679 26.8554 225.346ZM22.3086 220.648C22.263 220.723 22.2178 220.801 22.1722 220.887C22.0483 221.119 21.5813 222.156 21.3852 222.837C21.3457 222.137 21.7611 221.318 22.3086 220.648ZM26.885 132.032C26.9592 132.002 27.0189 131.998 27.0732 132.002C26.8557 132.012 26.7966 132.27 26.7872 132.628C26.5984 132.427 26.5534 132.164 26.885 132.032ZM41.9823 142.816C43.3989 143.52 44.7735 143.929 46.1249 144.78C44.467 146.069 39.1739 148.151 39.332 144.168C39.3507 143.703 39.6219 142.457 40.0454 142.18C40.6897 141.761 41.4206 142.538 41.9823 142.816ZM25.7661 124.27C32.004 126.447 39.2711 125.908 45.6112 124.847C52.4228 123.706 59.2238 123.035 65.8224 120.899C65.8291 121.818 66.2276 122.781 65.4994 123.538C64.9286 124.132 63.6913 124.244 62.9371 124.494C60.9643 125.149 59.27 126.102 57.2079 126.492C54.8981 126.93 52.5908 126.922 50.2611 127.181C49.4174 127.275 48.6241 127.426 47.8316 127.578C46.7342 127.594 45.8745 127.743 44.7789 128.047C40.8599 128.066 36.9674 128.182 33.0646 127.715C31.0824 127.478 29.122 127.187 27.1347 126.985C25.2735 126.795 25.6892 125.993 25.7661 124.27ZM23.3798 107.526C19.7062 108.541 15.9175 108.237 12.3031 107.075C9.6896 106.236 6.22242 105.005 5.67281 101.824C5.30992 99.726 6.56751 99.3456 8.04651 98.4746C8.75418 98.0577 9.09837 97.743 9.57437 97.037C9.85672 96.6175 10.1107 95.5651 10.4277 95.2784C11.2003 94.579 13.6385 95.1928 14.8472 95.1389C16.6487 95.0585 17.8698 94.4528 19.5271 93.9185C22.4543 92.9743 24.3067 91.8295 26.5791 89.6694C28.7896 87.5683 31.385 85.4311 33.1723 82.955C35.1737 80.1823 37.0892 77.4843 39.2696 74.8399C40.8852 72.8803 43.8164 68.958 46.7152 68.976C48.1704 68.9851 47.955 70.3576 49.1106 71.0549C50.1658 71.6916 51.5462 71.2485 52.7057 71.1383C51.9413 72.8758 50.881 74.6628 51.2563 76.6289C51.4665 77.7301 51.5785 78.1102 51.1483 79.1523C50.7552 80.104 50.3302 80.9476 50.0868 81.9668C49.1387 85.9392 48.6901 90.41 49.0877 94.4718C49.7761 101.503 52.1854 108.763 57.4558 113.727C58.6573 114.859 59.9788 115.763 61.4503 116.508C62.9181 117.251 63.0397 118.024 61.2213 118.356C57.6797 119.002 54.0843 119.443 50.5172 119.923C46.9547 120.402 43.3292 120.902 39.7368 120.976C37.9598 121.012 36.1933 121.233 34.4166 121.107C33.5318 121.044 32.6525 120.886 31.7654 120.862C30.9907 120.84 29.8342 121.227 29.1133 120.922C27.9848 120.444 28.5458 117.142 28.4632 115.995C28.3679 114.678 27.5374 112.21 28.0306 110.966C28.3772 110.093 29.6493 109.726 30.3084 109.047C31.3898 107.931 32.4127 106.608 32.8257 105.087C34.1952 106.193 33.0169 106.902 33.4326 108.25C33.8863 109.72 34.7228 109.258 35.3777 108.249C36.4708 106.564 36.3975 103.961 35.352 102.282C34.7469 101.311 33.7638 100.58 32.7554 100.061C31.9391 99.6411 30.1328 98.817 29.2291 99.1821C26.7764 100.173 29.3868 103.102 30.6336 103.798C30.334 104.663 28.2095 105.911 27.3996 106.281C26.1963 106.83 24.6714 107.169 23.3798 107.526ZM57.0441 80.6992C57.0764 81.1705 57.1264 81.6208 57.2821 82.0717C57.5994 82.9912 58.2341 83.7878 59.1086 84.2429C60.8051 85.1263 64.2457 83.8544 65.7371 82.8123C65.7371 85.9708 66.3033 88.4833 67.2094 91.4798C68.086 94.379 69.8803 96.7382 71.4066 99.3122C72.1982 100.647 72.9248 102.025 74.0424 103.121C75.1785 104.235 75.3676 104.662 75.2638 106.304C75.0934 109.009 73.805 110.855 71.3698 111.975C69.4405 113.044 65.4565 113.913 63.3546 113.019C61.145 112.08 58.9927 109.647 57.5617 107.775C54.3108 103.521 52.662 97.1138 52.8596 91.8253C52.9624 89.0706 53.1081 86.2518 53.3718 83.5071C53.5636 81.5075 53.4936 78.6327 56.4025 79.5339C57.3421 79.8248 56.9684 79.6077 57.0441 80.6992ZM68.2052 117.637C68.4857 117.065 70.9541 116.491 71.384 116.826C72.0359 117.335 72.063 120.299 72.292 121.142C72.6552 122.482 73.133 123.805 73.7085 125.068C74.9166 127.717 76.6499 130.453 78.7063 132.517C80.8375 134.654 83.2863 136.135 85.8738 137.667C86.6132 138.105 87.329 138.633 88.0885 139.03C88.4074 139.197 88.998 139.275 89.249 139.526C89.8701 140.147 89.5829 141.421 89.5757 142.229C89.5458 145.468 89.5567 148.602 89.9859 151.796C87.4506 149.834 85.1598 147.343 82.9026 145.055C80.5358 142.656 77.4882 141.072 75.2439 138.531C73.202 136.22 71.5948 133.526 70.0947 130.852C69.4377 129.681 68.1859 128.188 68.1409 126.819C68.0921 125.342 68.7654 123.779 68.7732 122.25C68.7783 121.168 67.7886 118.486 68.2052 117.637ZM98.6503 150.699C98.4961 151.676 98.6192 153.773 97.2588 153.984C96.3221 154.129 95.746 153.24 95.4027 152.495C94.3659 150.245 94.7086 147.244 94.3216 144.826C93.8643 141.972 93.8534 139.158 93.4999 136.3C93.1883 133.78 92.1485 130.601 92.7153 128.117C93.229 128.104 94.6169 132.964 94.9164 133.734C95.533 135.321 96.2428 136.656 96.7761 138.301C97.4826 140.48 98.0952 142.56 98.4207 144.84C98.6497 146.442 99.5082 149.288 98.6503 150.699ZM106.176 139.954C104.906 141.924 103.535 143.978 101.746 145.622C101.746 144.703 101.059 141.714 101.525 141.003C102.08 140.157 105.23 140.118 106.176 139.954ZM56.9276 62.3343C58.0063 61.8446 59.2099 61.6904 60.2977 61.1844C61.3378 60.7007 62.1103 60.4088 63.2647 60.3139C67.2767 59.9847 71.362 61.0118 75.0741 62.1349C77.1172 62.753 78.7289 64.1074 80.4547 65.2808C82.2398 66.4943 83.2187 67.5512 83.996 69.6046C85.6684 74.0221 86.6976 78.199 87.3628 82.8572C88.0379 87.5834 86.9417 92.3605 87.0101 97.0966C87.0771 101.769 87.4107 106.633 88.8952 111.082C90.0426 114.522 92.0767 120.059 96.3632 120.402C100.432 120.728 103.875 116.532 105.557 113.383C110.004 105.055 111.676 95.5362 111.917 86.1904C112.545 83.0629 112.904 79.6908 113.992 76.6916C115.203 78.5842 116.19 80.6154 117.302 82.5662C118.523 84.7076 118.445 86.4545 118.339 88.8875C118.257 90.7793 117.59 92.587 117.347 94.4709C117.067 96.6458 116.552 98.7661 116.428 100.963C116.283 103.553 116.428 106.17 116.209 108.753C116.026 110.926 115.547 113.108 115.199 115.261C114.86 117.353 114.819 119.412 114.869 121.497C114.917 123.516 115.615 125.476 117.325 126.556C114.783 129.692 111.614 134.311 107.357 135.055C105.929 135.304 104.596 135.498 103.15 135.603C101.975 135.689 100.602 136.349 99.5881 135.616C97.8434 134.355 97.4995 131.544 96.8401 129.705C96.384 128.434 91.8619 118.019 89.4816 120.97C89.0575 121.495 89.1576 123.425 89.0928 124.165C88.9992 125.232 89.0424 126.318 89.0083 127.389C88.9649 128.752 88.8439 130.135 88.9386 131.498C88.9962 132.32 89.4897 133.207 88.5588 133.405C87.6973 133.588 85.8808 131.877 85.2536 131.433C84.4123 130.839 83.5053 130.392 82.6528 129.819C80.9005 128.641 79.5105 127.158 78.2635 125.477C77.0083 123.786 75.8907 121.888 75.0412 119.956C74.6099 118.976 74.2575 117.972 73.8974 116.965C73.9052 116.988 73.3625 115.718 73.3924 115.63C73.488 115.346 74.6355 114.874 74.9187 114.651C78.1564 112.096 78.8046 105.741 77.944 102.025C77.4231 99.776 75.7 97.8002 74.4759 95.8856C73.2937 94.0363 72.0431 92.2246 71.0621 90.2564C69.9807 88.0882 69.1451 85.8115 68.175 83.5942C67.7069 82.524 67.1452 81.9735 67.8444 80.9934C68.2728 80.3925 69.1596 80.1465 69.5412 79.489C69.9255 78.8273 69.9653 77.5505 69.2739 77.0777C68.5177 76.5599 67.4188 77.2831 66.7259 77.565C65.8013 77.9409 64.8777 78.1231 63.9341 78.4122C62.8629 78.7408 61.8986 79.4673 60.7613 79.4673C61.3728 77.3614 64.0149 77.5611 64.8722 75.6028C65.4577 74.2643 65.3814 71.7738 63.5555 71.553C62.5188 71.4277 61.701 72.2186 60.9303 72.7493C59.9155 73.4475 59.1496 73.5779 57.9611 73.7966C57.5234 73.8773 56.8127 74.2875 56.3976 74.148C55.7241 73.9222 56.1129 74.0616 56.4655 73.508C56.9898 72.6849 58.2299 71.881 58.9795 71.2801C60.6648 69.9293 63.0005 68.9556 64.4605 67.3849C65.4255 66.3464 65.8997 62.8548 64.0662 62.2976C63.3308 62.0738 62.1344 62.8032 61.4141 63.0261C60.1966 63.4029 58.9562 63.7029 57.7551 64.1327C55.6212 64.8959 53.5721 65.8025 51.4071 66.4874C52.6406 64.7315 54.9832 63.2174 56.9276 62.3343ZM129.087 61.8196C129.087 63.0261 129.548 65.32 129.028 66.4169C128.56 67.4048 125.715 67.9553 124.71 68.3327C121.456 69.5549 118.23 70.9157 114.904 71.9277C118.331 66.8512 123.425 63.9041 129.087 61.8196ZM128.608 45.4275C127.764 46.6383 126.299 48.28 124.584 47.7078C122.736 47.091 121.288 44.2607 122.232 42.4647C123.039 40.9305 125.341 39.9679 126.763 41.1772C127.073 41.4407 127.276 42.1154 127.572 42.3217C127.763 42.4536 128.065 42.1 128.298 42.2416C128.985 42.659 129.25 43.6782 130.242 43.593C130.701 43.5538 132.172 42.3545 132.473 42.0479C133.279 41.2272 132.998 40.3862 133.125 39.3077C133.301 37.8219 134.326 37.5939 135.505 36.8274C136.629 36.0973 137.531 35.0086 138.642 34.3053C139.969 33.4656 139.209 34.5303 140.42 34.6357C140.639 34.6547 141.127 33.9285 141.506 33.9406C141.998 33.9562 142.211 34.2836 142.492 34.6405C143.103 35.4161 142.653 35.6594 143.717 35.8401C144.485 35.9705 144.961 35.4127 145.617 35.4236C146.154 34.8155 146.95 33.5457 147.91 33.9207C148.56 34.1746 148.793 35.5362 148.932 36.1049C149.46 38.2605 149.42 40.7937 149.44 43.0045C148.204 42.1376 148.044 41.5551 147.658 40.1576C147.408 39.2496 146.802 37.9153 146.142 39.2794C145.954 39.6664 146.115 40.26 145.991 40.6853C145.847 41.1787 145.503 41.4217 145.449 41.9599C145.319 43.2653 146.388 43.7128 147.311 44.3484C146.45 45.2763 143.973 44.576 144.633 46.5573C145.332 48.6508 148.015 47.4915 149.353 46.9663C150.494 51.291 145.425 53.3749 142.336 54.5577C140.523 55.2519 139.813 55.6389 139.564 57.7566C139.35 59.5715 139.594 61.4301 140.26 63.1255C140.527 63.805 140.782 64.7339 141.146 65.3627C141.455 65.8955 142.069 65.9326 142.276 66.2299C143.04 67.3262 142.49 69.7052 142.401 71.0211C142.157 74.6191 141.036 77.8957 140.554 81.4069C140.307 83.2026 139.567 84.8838 139.25 86.6587C138.959 88.2872 138.844 89.8245 137.472 90.9889C134.714 93.3288 132.581 89.8733 131.626 87.602C130.265 84.3667 130.129 80.1148 130.354 76.6651C130.598 72.915 132.313 69.3122 132.404 65.5898C132.501 61.609 131.9 57.8298 130.904 53.9809C130.469 52.2988 129.835 50.7928 129.298 49.1664C128.859 47.8367 129.586 46.6359 128.608 45.4275ZM135.776 6.04616C135.776 6.04917 135.776 6.05188 135.777 6.0549C135.759 6.03532 135.742 6.01664 135.723 5.99375C135.743 6.01755 135.76 6.03381 135.776 6.04616ZM135.858 5.67329C135.817 5.39228 135.727 5.03869 135.665 4.87967C135.815 4.97153 135.984 5.04863 135.99 5.14501C136.006 5.4215 135.927 5.55161 135.858 5.67329ZM139.952 6.38319C139.923 6.39945 139.895 6.41722 139.866 6.43288C139.798 6.43288 139.741 6.41843 139.69 6.39584C139.71 6.40005 139.731 6.40337 139.755 6.40518C139.822 6.40999 139.888 6.40005 139.952 6.38319ZM142.092 5.67811C141.708 5.6751 141.305 5.63926 140.857 5.83352C140.928 5.79075 140.999 5.7525 141.071 5.7269C141.272 5.65582 141.695 5.66365 142.092 5.67811ZM120.387 110.877C120.47 109.076 120.468 108.535 121.883 107.374C123.063 106.406 124.204 105.39 125.396 104.437C128.035 102.325 130.855 100.089 133.856 98.5116C135.537 97.6282 140.124 95.8479 138.965 99.3354C137.871 102.626 135.76 105.55 133.942 108.474C132.09 111.454 130.236 114.437 128.312 117.372C127.474 118.648 126.591 119.9 125.79 121.199C125.002 122.478 124.921 123.34 123.304 122.811C122.129 122.426 120.802 121.957 119.694 121.456C118.721 121.017 118.779 120.748 118.752 119.604C119.355 116.648 120.248 113.936 120.387 110.877ZM127.918 74.8429C127.509 76.4904 124.574 76.6864 122.991 77.006C122.719 77.0608 121.34 77.5069 121.083 77.3539C120.575 77.0518 120.825 76.1786 120.608 75.7558C119.423 73.4415 119.406 76.4003 119.068 77.097C118.144 79.0059 116.729 75.1841 116.21 74.2483C115.81 73.5282 115.382 73.162 115.796 72.5575C116.14 72.0542 118.056 71.7087 118.644 71.4916C120.789 70.6992 122.928 69.8923 125.068 69.0845C125.989 68.7366 128.825 66.9154 128.794 68.6658C128.488 70.6799 128.407 72.8725 127.918 74.8429ZM126.314 94.5152C125.411 94.7956 122.96 95.9202 122.047 95.3898C121.277 94.9423 121.809 93.3728 121.896 92.556C122.059 91.0163 122.035 89.3411 121.948 87.7966C121.819 85.5154 121.629 85.3353 123.88 84.7218C124.75 84.4845 127.405 83.1999 128.051 83.9243C128.353 84.2625 128.225 85.338 128.292 85.7479C128.436 86.6349 128.683 87.5021 129.007 88.3397C129.567 89.7875 130.385 91.0874 131.24 92.3746C129.706 93.3186 128.029 93.9818 126.314 94.5152ZM121.218 78.3848C121.607 77.8246 123.547 77.7448 124.188 77.6093C125.322 77.3695 126.456 77.1325 127.589 76.8931C127.65 78.2737 128.431 81.8795 127.437 82.8755C126.879 83.436 125.011 83.5803 124.221 83.7749C123.359 83.9869 122.496 84.195 121.633 84.4031C121.536 83.0725 121.454 81.741 121.312 80.4139C121.261 79.926 120.901 78.8405 121.218 78.3848ZM121.442 96.6123C122.038 95.9259 123.652 95.9458 124.549 95.7362C125.978 95.4019 127.332 94.9456 128.685 94.3802C129.442 94.064 130.933 92.9812 131.77 93.2556C132.004 93.3324 132.494 94.298 132.673 94.4793C132.978 94.7896 133.372 94.9998 133.725 95.2447C134.699 95.9196 135.29 96.1295 136.439 96.3581C130.431 98.8218 125.604 103.205 120.635 107.249C120.282 106.953 120.478 104.31 120.517 103.703C120.588 102.578 120.637 101.438 120.721 100.309C120.79 99.3805 120.808 97.3415 121.442 96.6123ZM139.686 120.581C139.505 121.607 139.478 123.015 139.038 123.962C138.635 124.83 138.684 124.769 137.613 124.795C136.258 124.828 134.705 125.055 133.394 124.643C134.565 122.057 135.539 119.247 137.141 116.888C137.644 116.148 138.616 114.251 139.668 114.364C140.724 114.478 140.492 115.537 140.409 116.303C140.253 117.734 139.937 119.164 139.686 120.581ZM144.961 80.2492C145.774 74.6715 145.705 69.2185 145.705 63.6014C147.003 63.7731 148.432 63.6649 149.683 64.0321C149.279 65.32 148.115 66.4816 149.268 67.7045C150.438 68.9465 153.168 69.4911 154.75 69.9483C156.604 70.4841 158.493 71.1389 160.398 71.4572C161.254 71.6 162.187 71.7389 163.05 71.5729C164.418 71.3103 164.538 70.9473 165.437 72.356C165.442 72.3635 165.45 72.375 165.454 72.3831C165.195 72.234 164.371 72.3238 164.59 72.3301C164.623 72.4436 164.671 72.5566 164.699 72.6617C164.456 72.4623 163.92 72.2942 163.845 72.281C162.951 72.1238 161.817 72.5249 160.956 72.7237C159.025 73.1698 157.108 73.6559 155.238 74.3164C153.663 74.8724 152.104 75.4949 150.603 76.2253C149.443 76.7891 146.766 77.7822 146.4 79.1634C145.699 81.812 152.696 83.8246 154.402 84.7212C156.014 85.5678 155.505 86.8235 155.523 88.5056C155.543 90.3326 155.708 92.1424 155.582 93.9655C155.484 95.3781 155.375 95.1591 153.966 95.1338C152.911 95.1148 151.856 95.0724 150.801 95.135C149.314 95.2236 147.787 95.4296 146.391 95.9705C144.302 96.7795 140.291 100.631 144.288 101.805C145.934 102.288 148.056 102.111 149.743 101.995C151.206 101.894 153.498 101.228 154.91 101.731C155.646 101.522 155.911 101.79 155.706 102.533C155.74 103.043 155.774 103.553 155.808 104.062C155.876 105.087 155.944 106.113 156.013 107.138C156.152 109.237 156.292 111.335 156.431 113.434C155.204 111.695 153.517 108.266 150.904 108.658C148.66 108.994 147.334 112.473 146.612 114.268C146.025 115.726 145.645 117.255 145.249 118.773C144.867 120.233 144.728 122.296 144.03 123.619C143.343 124.922 142.388 124.485 140.982 124.619C139.223 124.786 139.932 123.802 140.212 122.307C140.637 120.031 142.144 116.103 140.691 113.981C138.836 111.273 136.215 116.291 135.503 117.647C134.836 118.914 134.268 120.227 133.758 121.564C133.429 122.427 133.163 124.29 132.312 124.762C131.271 125.341 129.621 124.416 128.665 124.113C127.542 123.758 126.314 123.609 125.161 123.377C128.444 118.237 131.859 113.174 135.045 107.973C136.637 105.373 138.646 102.643 139.521 99.7016C139.687 99.1444 139.891 98.6122 139.823 98.0195C139.764 97.5138 139.004 96.7187 139.052 96.3678C139.124 95.8476 140.168 95.4133 140.656 94.8667C142.353 92.9671 142.779 90.7064 143.306 88.2915C143.879 85.6633 144.574 82.9041 144.961 80.2492ZM151.371 64.3083C153.872 63.7695 156.714 65.2064 158.805 66.3663C160.185 67.1316 163.867 68.7315 164.009 70.6058C163.971 70.0974 160.584 70.4145 159.915 70.4311C157.054 69.8116 154.003 68.9764 151.333 67.7418C150.361 67.2921 149.219 66.8518 149.574 65.6977C149.806 64.9393 150.663 64.461 151.371 64.3083ZM148.47 101.181C146.889 101.09 141.15 101.153 144.038 98.2869C145.847 96.4922 149.177 96.1027 151.582 96.0931C152.444 96.0898 153.294 96.1572 154.15 96.2452C154.384 96.2732 154.619 96.3009 154.854 96.3289C155.571 96.1862 155.795 96.4831 155.526 97.2192C155.654 97.6499 155.86 100.204 155.482 100.564C154.98 101.04 153.382 100.83 152.793 100.876C151.347 100.989 149.921 101.19 148.47 101.181ZM156.865 122.893C152.706 123.512 148.554 124.303 144.336 124.368C144.966 121.294 145.699 118.227 146.845 115.299C147.578 113.427 148.908 109.387 151.471 109.586C153.517 109.744 155.905 113.25 156.476 115.041C157.219 117.376 156.865 120.465 156.865 122.893ZM167.547 76.1642C167.464 76.5901 165.597 77.3563 165.198 77.5882C162.318 79.2613 159.753 81.7416 158.03 84.5604C157.839 83.4725 157.869 81.4093 156.957 80.6365C155.352 79.276 155.682 82.3238 155.49 83.2547C155.31 84.1279 155.534 83.9866 154.781 84.0643C154.113 84.133 152.409 82.8821 151.793 82.5671C150.089 81.6958 148.457 80.7476 146.82 79.7585C148.176 77.5189 152.174 76.491 154.45 75.5952C157.722 74.3077 160.947 73.649 164.409 73.1159C164.988 73.4171 165.063 72.7394 165.496 72.5876C165.52 72.5527 165.528 72.5231 165.529 72.4957C166.037 73.2514 167.67 75.5296 167.547 76.1642ZM171.782 106.344C173.394 113.748 173.795 121.45 175.83 128.764C177.765 135.717 179.483 142.639 181.719 149.498C183.007 153.448 184.202 157.438 185.923 161.232C187.123 163.878 188.076 169.521 191 170.76C192.915 171.57 193.763 170.852 193.559 168.911C193.382 167.222 192.506 166.161 191.783 164.702C191.531 164.194 190.711 162.76 190.8 162.221C190.911 161.551 191.082 161.623 191.781 161.292C193.265 160.588 194.744 160.111 196.324 159.704C195.687 160.692 194.413 162.106 194.311 163.315C194.226 164.313 194.943 166.143 195.934 166.526C196.871 166.888 197.974 166.125 198.776 165.659C199.704 165.121 200.589 164.971 201.611 164.588C200.309 166.465 198.175 167.96 199.088 170.542C200.063 173.296 203.087 171.044 205.021 170.732C204.469 172.866 202.018 175.299 200.256 176.487C199.072 177.284 197.788 178.003 196.518 178.648C196.026 178.897 195.381 179.05 194.929 179.348C194.757 179.461 194.468 179.941 194.312 180.016C192.119 181.076 189.127 181.346 186.74 181.855C184.111 182.416 181.848 182.553 179.141 182.423C176.901 182.316 174.42 180.94 172.549 179.784C171.126 178.906 170.918 177.833 170.475 176.282C169.741 173.712 169.084 171.126 168.383 168.548C167.779 166.325 167.497 164.189 167.088 161.933C166.221 157.153 165.821 152.298 164.891 147.526C163.967 142.786 163.658 137.985 163.403 133.14C163.279 130.806 162.899 128.426 162.784 126.138C162.69 124.277 162.722 122.404 162.732 120.489C162.739 119.144 162.262 117.8 162.295 116.449C162.324 115.255 162.433 114.18 162.307 112.974C162.038 110.405 161.828 107.866 161.626 105.293C161.232 100.277 160.072 95.3269 159.61 90.3323C159.41 88.1722 161.781 86.1009 163.387 84.8429C165.099 83.5023 166.472 81.6196 168.356 80.5642C169.054 89.2269 169.932 97.8451 171.782 106.344ZM143.413 198.962C141.556 199.789 139.699 200.619 137.841 201.445C136.475 202.053 134.683 203.302 133.182 203.19C134.249 201.744 134.921 200.09 136.059 198.686C137.196 197.284 138.133 195.795 139.161 194.313C140.511 195.961 141.892 197.47 143.413 198.962ZM143.808 191.692C146.618 190.21 150.61 187.394 153.904 187.925C156.276 188.307 158.963 190.044 160.395 191.957C161.067 192.854 161.739 193.691 162.508 194.57C163.213 195.376 163.574 195.271 162.958 196.111C162.484 196.758 161.367 197.195 160.64 197.445C160.64 196.031 161.08 194.613 159.381 194.753C158.711 194.808 157.929 194.968 157.261 195.077C156.685 195.171 156.351 195.421 155.86 195.537C155.337 195.66 154.711 195.515 154.168 195.558C153.234 195.631 152.485 196.006 151.6 196.202C149.768 196.607 148.222 197.169 146.439 197.768C145.623 196.52 144.937 195.021 143.829 194.001C142.589 192.861 142.061 192.613 143.808 191.692ZM119.703 4.89894C119.973 4.87063 120.281 4.70287 120.49 4.35319C120.125 4.9652 119.91 4.99291 119.703 4.89894ZM111.281 5.87358C111.607 5.93291 111.93 6.0055 112.2 6.1323C112.467 6.25699 112.61 6.39915 112.752 6.52384C112.686 6.49493 112.614 6.46391 112.533 6.43017C112.182 6.2835 111.733 6.01875 111.281 5.87358ZM105.664 52.284C105.642 52.2542 105.621 52.2268 105.6 52.1997C105.621 52.2268 105.642 52.2542 105.664 52.284H105.664ZM104.572 52.4427C104.469 52.4051 104.382 52.343 104.313 52.2527C104.382 52.343 104.469 52.4051 104.572 52.4427C104.64 52.4674 104.715 52.4816 104.796 52.4855C104.715 52.4816 104.64 52.4674 104.572 52.4427ZM104.135 51.5488C104.135 51.6786 104.145 51.7928 104.164 51.8931C104.145 51.7928 104.135 51.6786 104.135 51.5488ZM105.457 52.0325C105.431 52.0045 105.405 51.9786 105.379 51.9545C105.405 51.9786 105.431 52.0048 105.457 52.0325ZM105.232 51.8364C105.19 51.8081 105.148 51.7825 105.105 51.7612C105.148 51.7825 105.19 51.8081 105.232 51.8364ZM151.942 7.09278C152.002 7.11025 152.054 7.11778 152.103 7.12049C152.037 7.12712 151.984 7.11718 151.942 7.09278ZM153.387 8.0611C153.211 7.89816 153.107 7.73853 153.053 7.5786C153.081 7.59546 153.11 7.61083 153.144 7.62408C153.196 7.57227 153.249 7.52047 153.301 7.46836C153.228 7.6033 153.203 7.73341 153.259 7.85027C153.529 8.41409 153.858 7.55691 154.265 7.98098C153.96 7.94364 153.589 8.0611 153.387 8.0611C152.917 8.70504 152.448 9.34927 151.979 9.99321C152.614 10.3104 152.813 9.91882 153.168 10.4968C153.185 10.5248 153.201 10.5935 153.214 10.6841C153.067 10.2628 152.682 10.3438 151.979 9.99321C152.448 9.34927 152.917 8.70504 153.387 8.0611ZM154.603 9.47878C154.646 9.44626 154.672 9.40138 154.689 9.34204C154.7 9.30229 154.707 9.25621 154.712 9.2029C154.707 9.25621 154.7 9.30229 154.689 9.34204C154.672 9.40138 154.646 9.44626 154.603 9.47878C154.574 9.50047 154.537 9.51673 154.491 9.52788C154.537 9.51673 154.574 9.50047 154.603 9.47878ZM154.736 8.79419C154.73 8.87822 154.726 8.95382 154.723 9.02158C154.726 8.95382 154.73 8.87822 154.736 8.79419ZM154.041 10.5094C154.062 10.5468 154.084 10.5805 154.108 10.6118C154.085 10.5796 154.062 10.5468 154.041 10.5094ZM153.336 13.0436C152.665 12.6843 153.247 12.2319 153.275 11.6799C153.278 11.6308 153.278 11.5892 153.28 11.544C153.285 11.6774 153.285 11.7868 153.282 11.8404C153.237 12.6205 152.683 12.8376 153.691 13.074C153.76 13.0903 153.849 13.0987 153.95 13.1027C153.693 13.1213 153.468 13.1147 153.336 13.0436ZM163.739 18.8409C163.697 18.5219 165.189 17.8259 165.381 17.7403C165.145 17.8454 163.699 18.5385 163.739 18.8409ZM165.436 16.0163C165.426 16.0121 165.415 16.0109 165.405 16.0064C165.407 15.9829 165.405 15.9609 165.405 15.938C165.412 15.9669 165.421 15.9937 165.436 16.0163ZM166.23 18.5924C166.238 18.5578 166.254 18.4653 166.272 18.3551C166.298 18.4912 166.327 18.6189 166.355 18.7303C166.322 18.687 166.283 18.6415 166.23 18.5924ZM165.071 18.5728C165.07 18.0322 165.24 18.1475 165.345 18.1638C165.249 18.3087 165.071 18.3358 165.071 18.5728ZM163.497 19.7601C163.654 19.7294 163.786 19.8194 163.907 19.9233C163.642 19.8532 163.425 19.7739 163.497 19.7601ZM162.217 22.8482C162.192 22.8566 162.17 22.862 162.147 22.8686C162.17 22.862 162.192 22.8566 162.217 22.8482ZM162.346 22.8018C162.329 22.8087 162.314 22.8135 162.297 22.8195C162.314 22.8135 162.329 22.8087 162.346 22.8018ZM162.104 22.881C162.072 22.8891 162.041 22.8948 162.012 22.8988C162.041 22.8948 162.072 22.8891 162.104 22.881ZM163.088 41.569C163.154 41.4576 163.297 41.4208 163.458 41.403C163.255 41.4805 163.099 41.6464 163.062 41.8868C163.022 41.7979 163.012 41.697 163.088 41.569ZM164.262 38.1123C164.25 38.109 164.239 38.1045 164.228 38.1035C163.9 38.0779 163.757 38.2906 163.721 38.6156C163.743 38.3321 163.838 38.1008 164.084 38.0255C164.071 37.9999 164.06 37.9761 164.048 37.9511C164.11 38.0081 164.183 38.0617 164.262 38.1123ZM163.872 39.8625C163.865 39.8239 163.857 39.7818 163.848 39.7381C163.885 39.8926 163.927 40.0465 163.97 40.1944C163.927 40.0754 163.891 39.9619 163.872 39.8625ZM164.158 34.4809C164.131 34.4932 164.101 34.5041 164.069 34.5134C164.101 34.5041 164.131 34.4935 164.158 34.4809ZM164.238 34.4333C164.22 34.4471 164.198 34.4592 164.176 34.4706C164.198 34.4592 164.219 34.4468 164.238 34.4333ZM164.054 34.5185C164.016 34.5288 163.975 34.5372 163.929 34.5429C163.974 34.5372 164.016 34.5291 164.054 34.5185ZM164.392 30.5898C164.396 30.735 164.396 30.8799 164.401 31.0169C164.377 30.8823 164.375 30.7495 164.392 30.5898ZM229.501 224.353C228.604 223.546 225.598 223.493 224.405 223.266C226.987 220.796 228.928 214.551 223.995 213.749C222.903 213.572 222.594 213.993 222.344 212.756C222.191 211.998 222.503 211.3 222.127 210.545C221.234 208.753 217.843 208.953 216.148 208.695C216.553 207.272 217.546 204.73 216.05 203.574C214.87 202.663 212.414 203.879 211.16 204.27C207.772 205.324 204.33 206.528 201.472 208.652C200.191 206.923 198.852 205.217 197.778 203.347C196.753 201.564 196.118 199.592 195.155 197.776C194.189 195.955 193.163 193.809 191.814 192.244C190.672 190.918 189.106 190.787 187.599 190.155C183.776 188.551 180.463 188.643 176.469 189.236C172.476 189.829 169.014 192.164 165.633 194.201C164.305 189.725 161.235 184.862 156.476 183.482C154.34 182.862 152.092 183.46 150.14 184.434C147.72 185.641 145.817 187.694 143.451 188.837C146.149 184.218 149.555 179.873 152.521 175.511C154.147 173.118 156.202 170.982 157.791 168.544C159.41 166.059 160.603 163.296 161.778 160.583C162.77 163.115 162.938 165.779 163.849 168.319C164.686 170.651 165.259 173.044 166.21 175.337C167.204 177.732 168.081 180.094 169.424 182.322C170.19 183.594 172.077 187.553 173.469 185.013C176.565 187.104 179.553 188.367 183.426 188.275C185.199 188.234 187.173 188.178 188.87 187.781C190.594 187.378 192.24 186.835 193.953 186.448C195.308 186.143 196.547 185.315 197.779 184.703C199.197 183.998 200.602 182.731 201.696 181.62C203.052 180.244 204.452 178.919 205.815 177.552C207.163 176.199 207.066 174.818 207.787 173.136C208.54 171.382 208.863 169.831 207.867 168.061C207.137 166.764 205.847 166.942 205.545 165.629C205.258 164.383 205.537 163.208 204.754 162.065C204.16 161.198 202.022 160.617 202.015 159.732C202.009 159 202.77 158.352 202.74 157.474C202.713 156.69 202.329 155.429 201.907 154.766C201.116 153.518 199.91 153.476 198.549 153.857C195.263 154.778 192.042 157.147 189.782 159.634C186.683 151.147 184.243 142.475 181.976 133.794C180.975 129.96 180.191 126.076 179.554 122.166C178.924 118.295 177.97 114.396 177.544 110.505C177.288 108.171 176.57 105.987 176.234 103.682C175.956 101.773 175.771 99.8501 175.498 97.9406C174.893 93.7095 174.053 89.5432 173.399 85.3224C173.038 82.9897 172.223 80.9488 171.595 78.7026C171.057 76.7762 170.737 75.129 169.837 73.3092C168.121 69.8384 166.357 65.5868 163.024 63.3812C160.059 61.4196 157.184 59.7802 153.571 59.3785C151.452 59.1426 149.744 59.6408 147.672 59.8694C145.837 60.0721 144.265 61.0862 142.476 61.4515C142.476 59.7507 142.31 59.7046 143.862 59.0996C144.756 58.7511 145.628 58.3683 146.539 58.0653C147.499 57.746 148.226 57.4343 149.044 56.8476C150.01 56.1546 149.401 56.3747 150.558 56.6142C152.383 56.9919 151.845 56.5536 153.045 55.6446C153.744 55.1155 154.456 55.4383 155.274 55.5441C156.036 55.6425 157.291 55.9796 157.873 55.2932C158.315 54.7712 157.833 53.8755 158.159 53.308C158.674 52.4123 160.15 52.4533 160.937 51.8515C161.799 51.1934 161.877 50.4516 161.69 49.4396C161.561 48.739 160.457 47.1828 160.519 46.5801C160.56 46.1787 160.772 46.0612 161.045 46.0284C163.203 46.1374 163.099 45.8121 162.572 43.8999C162.541 44.183 162.523 44.4239 162.501 44.6315C162.495 44.3345 162.498 44.0571 162.572 43.8999C162.628 43.7812 162.83 43.7047 163.013 43.6092C162.965 43.6571 162.914 43.7059 162.855 43.7607C162.947 44.167 162.974 45.2293 163.365 45.5182C163.644 45.7251 164.623 45.704 164.821 45.3582C165.234 44.636 163.813 44.2264 163.757 43.6903C165.389 43.5538 164.833 42.7581 163.979 41.9461C163.945 41.7232 164.075 41.6178 164.368 41.6298C164.222 41.4774 164.042 41.391 163.862 41.363C163.989 41.3419 164.1 41.3046 164.158 41.2142C164.209 41.1347 164.212 41.0251 164.193 40.9019C164.225 40.9967 164.253 41.0781 164.273 41.1407C165.681 41.7091 164.958 38.693 164.374 38.1788C164.418 37.3421 164.463 36.5055 164.507 35.6688C164.106 35.9338 163.8 36.347 163.695 36.7783C163.71 36.3802 163.942 36.0419 164.507 35.6688C163.603 35.2703 163.514 35.2218 164.485 35.1369C165.291 35.8715 165.179 35.2616 165.678 34.8128C165.648 34.8396 166.433 33.986 166.38 34.1164C166.754 33.1936 166.342 31.2461 164.839 31.8804C165.655 32.6111 164.836 32.7457 164.551 33.374C164.541 33.3951 164.533 33.4174 164.526 33.4394C164.541 33.3641 164.561 33.2915 164.592 33.2246C165.096 32.1425 165.215 32.9734 164.661 31.7422C164.66 31.7413 164.66 31.7404 164.659 31.7392C164.806 31.8133 165.035 31.7976 165.399 31.6443C165.853 31.0904 165.99 31.3169 166.233 30.6034C166.446 29.979 166.347 29.5532 165.922 29.3209C165.97 29.3336 166.019 29.3478 166.068 29.3601C166.256 28.88 165.995 28.4225 165.56 28.2017C165.384 28.4891 165.209 28.7767 165.034 29.0643C165.113 29.0899 165.193 29.1128 165.273 29.1369C165.272 29.1369 165.271 29.1369 165.27 29.1366C164.713 29.0722 164.487 29.1722 164.404 29.4294C164.376 29.314 164.368 29.2005 164.432 29.0975C164.5 28.9875 164.981 29.1505 165.034 29.0643C165.897 27.6494 164.985 26.4714 163.596 25.7507C163.068 25.4769 162.028 25.4676 161.842 24.8269C161.71 24.3743 162.366 23.2788 162.492 22.7418C163.461 22.2973 161.671 22.0371 161.659 22.0352C161.606 22.6686 161.64 22.949 162.006 22.9C161.638 22.95 161.606 22.6665 161.659 22.0352C162.185 22.116 163.738 21.9711 164.499 21.4537C165.758 21.4895 166.407 21.7079 167.171 20.6155C166.424 20.3055 165.545 20.4724 164.875 19.9965C164.906 20.1396 164.931 20.2694 164.947 20.3893C164.889 20.2122 164.763 20.0598 164.593 19.9152C164.703 20.0092 164.646 20.0393 164.516 20.0351C164.541 20.0016 164.567 19.9631 164.593 19.9152C164.639 19.3851 165.028 19.6011 165.423 19.6342C165.413 19.4637 165.345 19.3204 165.272 19.1782C165.345 19.3146 165.412 19.4544 165.423 19.6342C165.673 19.4752 165.923 19.3161 166.173 19.1568C166.309 19.1174 166.391 19.0622 166.423 18.993C166.423 18.9942 166.423 18.9957 166.424 18.9969C167.619 19.3535 167.255 16.8217 166.705 16.8347C166.557 16.8383 166.451 16.8925 166.372 16.9783C166.389 16.7449 166.429 16.4979 166.525 16.1522H166.524H166.525C166.581 16.0034 166.636 15.8546 166.693 15.7058C166.391 15.7251 165.416 15.1429 165.399 15.8374C165.38 15.7121 165.331 15.5953 165.245 15.489C165.332 14.7206 164.88 14.786 164.18 14.5712C163.919 14.4914 163.632 13.993 163.339 14.2023C162.898 14.5167 163.164 14.8128 163.447 15.0369C163.405 15.298 163.28 15.5067 163.072 15.6627C163.04 15.6329 163.009 15.61 162.979 15.5868C163.174 15.4727 163.339 15.2911 163.447 15.0369C162.546 14.324 162.165 14.7905 161.472 15.364C161.748 15.5938 162.068 15.7176 162.374 15.7302C162.359 15.7639 162.343 15.798 162.33 15.8383C161.982 15.795 161.696 15.6368 161.472 15.364C162.208 14.7547 162.142 14.3812 161.247 14.0198C160.944 13.8978 160.752 14.1695 160.378 14.0258C160.192 13.9544 160.058 13.6303 159.877 13.5231C158.521 12.7211 156.894 13.1777 155.451 12.9876C155.631 12.9644 155.793 12.9418 155.916 12.9256C155.773 12.428 155.386 12.2127 154.978 12.0612C154.979 11.7777 154.979 11.494 154.979 11.2106C154.921 11.1977 154.865 11.1916 154.812 11.1901C154.906 11.1154 154.962 11.0139 154.949 10.841C154.601 10.9669 154.306 10.8742 154.115 10.6221C154.494 11.1061 155.232 10.8528 155.457 10.2321C155.694 9.58149 155.187 9.14447 154.747 8.66166C154.757 8.19784 154.56 8.03098 154.306 7.9864C154.765 7.08405 154.868 7.53161 154.375 6.40307C154.334 5.64257 153.689 5.91876 153.254 6.40728C153.3 6.29524 153.347 6.18019 153.391 6.06032C153.049 6.03713 152.707 6.01393 152.364 5.99014C152.452 6.26783 152.643 6.76238 152.391 6.99821C152.559 6.75696 152.44 6.22989 152.364 5.99014C151.945 5.75642 151.526 5.5227 151.107 5.28838C151.142 5.36337 151.239 5.64558 151.358 5.96514C151.036 5.51607 150.773 5.23778 150.333 4.77546C150.119 4.54987 149.279 3.4671 149.046 3.39964C147.623 2.98701 146.546 5.77088 144.809 5.38988C143.785 5.16519 144.263 4.90015 143.296 5.08809C142.766 4.39988 139.308 5.48204 139.176 6.13682C139.241 6.11935 139.29 6.11212 139.33 6.11092C138.94 6.25067 138.601 6.46571 138.224 6.61119C137.277 6.97622 137.841 7.0714 136.766 6.45698C136.4 6.24735 136.264 6.31301 136.121 6.29374C136.584 6.08592 136.807 4.64745 136.814 4.13453C136.83 2.909 136.668 3.12405 137.146 2.24519C136.704 2.23826 136.393 2.20061 136.161 2.30573C136.227 2.0973 136.275 1.8928 136.273 1.69492C136.513 1.04677 136.302 0.283259 135.562 0.102848C134.442 -0.170328 134.222 1.4371 135.034 1.70034C134.258 1.44855 134.569 0.431744 133.512 0.294101C133.9 0.274223 134.14 0.347411 134.502 0.79136C134.621 0.550411 134.74 0.309763 134.86 0.0688138C134.019 -0.0191326 133.63 -0.0905138 132.951 0.304643C132.286 0.42331 131.817 0.904908 131.316 1.37506C129.949 2.6554 128.722 3.90503 127.463 5.2941C126.817 3.96617 126.103 2.99936 125.054 4.48541C124.107 5.8266 123.341 7.6804 122.848 9.23994C121.865 8.78846 122.28 8.64118 121.867 7.9099C122.296 8.62221 121.86 8.78605 122.848 9.23994C122.947 8.92882 123.045 8.61739 123.143 8.30626C122.282 7.3247 122.318 6.34946 121.386 5.30283C121.283 5.63835 121.58 6.11634 121.632 6.41873C121.69 6.75395 121.318 6.98677 121.402 7.34729C121.751 7.21988 121.832 7.29669 121.843 7.43614C121.831 7.29699 121.749 7.22079 121.402 7.34729C121.264 6.75847 121.607 6.44553 121.416 5.78804C121.338 5.5224 121.226 5.32813 121.09 5.14019C121.683 4.14778 119.764 3.46017 119.318 4.0508C119.262 4.12519 119.224 4.19447 119.194 4.26133C118.444 3.9243 118.213 4.64143 117.863 5.17995C117.78 5.34831 117.697 5.51698 117.614 5.68564C117.173 6.04797 116.764 6.80605 116.431 7.30211C115.721 8.36259 115.423 9.9146 114.554 10.7983C114.583 10.229 114.893 8.96707 113.871 9.47607C114.209 9.30801 114.257 9.10381 114.183 8.86707C114.247 8.90292 114.315 8.93544 114.395 8.96195C114.539 8.9761 114.683 8.98996 114.827 9.00381C114.809 8.19784 114.28 7.66805 113.656 7.23946C113.656 7.44999 113.65 7.66654 113.663 7.87406C113.66 7.86653 113.656 7.8593 113.653 7.85177C113.379 7.19549 113.495 7.00213 113.258 6.80093C113.351 6.82322 113.458 6.83919 113.589 6.84551C112.825 5.55432 111.81 5.34801 110.407 5.71184C110.502 5.73443 110.602 5.75371 110.704 5.77268C110.546 5.77298 110.391 5.8013 110.248 5.87147C109.702 6.13682 108.896 7.66203 108.518 8.19091C107.187 10.0522 106.567 12.3328 105.87 14.4842C105.674 15.0896 105.377 16.5085 104.62 16.7115C103.741 16.9476 102.809 15.5146 102.035 15.0357C99.557 13.5029 98.3248 16.2549 97.9432 18.4382C97.374 19.4041 97.5052 20.1486 98.3263 20.6061C98.0965 20.2739 97.9906 19.92 97.9471 19.555C98.056 20.1754 98.5737 20.3905 98.6669 20.6561C98.7182 20.8019 98.7893 21.6862 98.7878 21.8639C99.211 22.1798 99.2427 22.4132 98.8832 22.5641C98.6633 22.7144 98.4572 22.8825 98.2651 23.068C97.6714 23.6939 97.6772 24.5616 97.1339 25.1703C96.52 25.8588 95.9562 25.5546 95.6663 26.6865C95.1698 28.6255 96.393 31.5533 98.5945 31.7389C98.3332 32.5024 97.9951 33.2767 97.7999 34.0598C97.5408 35.1016 97.5589 35.207 98.05 36.2037C94.3885 35.6594 94.6748 39.5354 96.7616 41.4392C97.2561 41.8904 97.7975 42.1714 98.4358 42.3714C98.8973 42.5162 100.291 42.4355 100.623 42.8734C101.323 43.7969 99.7613 44.9974 99.6231 46.0278C99.6089 46.1332 99.6032 46.3142 99.6077 46.5244C99.0313 47.2301 99.0596 47.2885 99.8834 47.9484C100.335 48.5297 101.729 48.3906 102.153 48.9466C102.806 49.8022 101.351 51.1796 102.08 52.1792C102.66 52.9737 103.265 52.4786 104.193 52.8153C104.642 53.0204 105.091 53.2261 105.54 53.4327C105.75 53.2867 105.98 53.1948 106.23 53.1578C106.754 53.4216 106.254 53.8863 106.915 54.0417C107.258 54.1502 108.052 54.5616 108.398 54.3483C107.906 54.6507 107.576 55.3989 107.294 56.2211C107.025 56.6609 106.777 57.1449 106.876 57.5081C106.71 58.0117 106.541 58.471 106.338 58.7908C107.481 58.9649 107.346 60.0411 108.137 60.632C109.206 61.5467 109.384 60.6977 109.131 60.2516C109.238 60.3058 109.348 60.3763 109.461 60.4567C109.483 60.4718 109.253 61.0151 109.478 61.1419C109.794 61.3199 109.794 61.1413 110.122 61.1377C110.431 61.1341 110.879 60.6706 111.256 60.6317C111.457 60.6112 112.051 60.8859 112.174 60.8043C112.516 60.5775 112.489 60.3287 112.356 60.0278L112.509 60.3335C112.877 61.2952 113.063 61.0787 113.621 60.8031C113.47 60.8775 114.059 60.4383 114.18 60.4736C113.904 59.7113 112.814 59.7914 112.142 59.6007C112.568 59.7215 113.259 59.726 113.651 59.8947C114.306 60.1769 114.099 60.4639 114.875 60.5519C115.202 60.5889 116.534 60.2269 116.769 59.9896C116.792 59.967 116.807 59.9396 116.819 59.9091C116.94 59.7161 117.061 59.5227 117.182 59.3294C117.674 59.3866 117.141 60.1438 117.914 59.8426C118.491 59.617 118.21 59.3035 118.027 58.9613C117.967 58.8493 117.899 58.7695 117.827 58.7119C118.625 58.9029 119.574 59.9769 120.663 59.676C121.278 59.5065 121.312 59.0872 121.762 58.6951C122.364 58.1713 122.55 58.252 123.279 57.9987C123.721 57.8451 124.191 57.5063 124.635 57.4274C125.358 57.2988 125.159 57.3786 125.758 57.6834C126.116 57.8656 126.32 58.2074 126.773 58.2737C127.186 58.3339 127.835 57.8587 128.169 57.9894C129.079 58.3451 128.848 59.6224 128.899 60.4645C124.292 58.9984 118.908 61.3419 115.517 64.5601C114.598 65.4326 113.996 66.4672 113.179 67.4159C112.293 68.4454 111.457 68.9131 111.332 70.3799C111.225 71.6446 111.795 72.4039 111.345 73.6189C110.913 74.7835 110.442 75.8257 110.126 77.0397C108.617 82.8379 108.57 88.8589 107.452 94.7372C106.418 100.176 104.94 105.022 102.505 110.008C101.377 112.319 100.43 113.734 97.9547 114.709C95.952 115.497 94.486 114.464 93.5071 112.666C90.8731 107.826 90.4985 102.85 90.5304 97.4523C90.5455 94.8594 90.8414 92.2662 91.0912 89.6884C91.3503 87.0165 91.1561 84.5203 90.9702 81.8524C90.5974 76.5033 89.3769 71.9156 87.5405 66.8849C86.6699 64.4989 85.9354 62.1729 83.8383 60.6206C82.6637 59.7513 81.4839 58.664 80.1068 57.9123C79.0052 57.3108 78.3494 56.7675 77.093 56.4982C76.2668 56.3211 75.5139 56.0476 74.716 55.7907C72.8334 55.1853 70.6558 54.998 68.6809 55.0046C64.0698 55.0203 59.0093 56.5726 54.8586 58.5631C52.792 59.5544 50.5477 61.0302 49.1864 62.9105C48.6247 63.6866 48.2422 64.5471 47.8606 65.4203C47.4039 66.4639 47.5475 66.6548 46.5804 66.6184C45.9747 66.5955 45.2972 66.035 44.6034 66.0052C43.8438 65.9726 43.2879 66.2371 42.5808 66.4332C41.6834 66.6819 40.8397 66.9048 40.0418 67.4204C38.1055 68.6707 36.4678 70.6633 34.9882 72.4018C32.2794 75.5838 29.8288 79.1498 27.2946 82.3909C24.799 85.582 21.7674 88.414 17.8912 89.8606C16.4125 90.4127 14.7751 90.5242 13.2654 90.9705C12.603 91.1663 11.8006 91.6861 11.1065 91.6771C10.0157 91.6632 10.0995 91.1289 9.72188 90.2633C9.27302 89.2351 8.62357 88.4345 7.81212 87.6665C4.21191 84.258 -0.265503 89.3083 0.0123178 93.1987C0.174908 95.4717 1.87864 96.971 1.81861 99.2019C1.7622 101.289 1.88648 103.406 2.63096 105.387C3.46653 107.609 5.52138 109.913 7.3334 111.424C9.01209 112.824 11.1146 113.122 13.2292 113.355C14.1984 113.462 15.2041 113.75 16.1413 113.734C16.9443 113.719 17.6746 113.394 18.4945 113.427C19.8851 113.483 20.6305 113.474 21.9336 112.98C22.9001 112.614 23.7722 112.411 24.8247 112.435C24.8247 114.653 24.9652 116.822 25.1559 119.032C25.1809 119.324 25.3827 120.082 25.2485 120.343C25.0829 120.664 24.8862 120.452 24.6799 120.683C24.1876 121.234 23.8307 121.504 23.4621 122.22C22.451 124.184 22.1415 126.38 22.5354 128.569C22.8446 130.286 23.854 130.993 23.6153 132.817C23.3348 134.959 22.813 137.146 22.7122 139.303C22.6639 140.331 22.6519 141.108 22.4341 142.106C22.3083 142.685 21.8851 143.728 21.9192 144.314C21.9406 144.676 22.324 144.836 22.3246 145.167C22.3255 145.456 21.9916 145.418 21.9686 145.665C21.8987 146.412 21.8579 147.089 21.8739 147.84C21.895 148.856 21.7958 149.865 21.8338 150.881C21.8628 151.655 21.6827 153.487 22.5511 153.185C22.3195 153.732 22.2579 154.259 22.235 154.783C22.2232 154.732 22.2181 154.68 22.2226 154.627C22.2757 154.021 22.2935 153.793 22.5511 153.185L22.0555 153.357C21.7523 154.14 22.1246 154.906 22.2078 155.684C22.2051 155.762 22.2024 155.84 22.1976 155.918C22.1276 157.049 22.213 158.156 22.2974 159.284C22.4902 161.859 22.581 164.73 23.2775 167.044C24.041 169.581 23.7969 172.77 24.0914 175.564C24.4283 178.762 24.9746 181.908 25.3815 185.093C25.745 187.938 25.9203 191.025 26.5438 193.795C27.0551 196.064 27.4876 198.273 27.7619 200.658C28.1413 203.965 29.3482 206.484 30.6764 209.489C31.2381 210.761 31.2767 210.74 30.2456 211.669C29.8137 212.058 29.4475 212.513 29.0074 212.894C28.1262 213.655 27.1637 214.099 26.0065 214.236C23.158 214.574 20.2803 215.586 18.68 218.042C17.1335 220.416 18.1355 223.197 19.293 225.616C17.7654 225.746 13.6343 225.652 14.6008 228.435C15.2614 230.338 18.7841 229.7 20.34 229.721C22.6136 229.752 24.9031 229.64 27.1567 229.609C28.1827 229.595 28.2873 229.489 29.2864 229.88C30.2279 230.248 30.9464 230.289 31.9651 230.222C33.0498 230.151 34.1339 230.31 35.1852 230.154C36.5104 229.958 37.3348 229.792 38.666 230.028C39.6282 230.198 40.3995 230.114 41.3597 229.988C42.4239 229.847 43.4318 229.932 44.5298 229.902C47.0944 229.833 49.6394 229.882 52.2059 229.91C54.7006 229.938 57.197 229.597 59.6745 229.709C63.995 229.904 68.3925 229.727 72.733 229.827C74.735 229.874 76.2816 231.039 78.2885 230.919C80.328 230.798 82.3955 230.779 84.4193 230.494C87.9039 230.003 91.2616 229.309 94.8018 229.127C97.0395 229.013 99.0062 229.977 101.111 230.582C101.874 230.801 102.561 230.698 103.274 230.861C103.947 231.014 104.637 231.453 105.348 231.635C107.03 232.067 108.638 232.231 110.117 232.271C110.309 232.625 110.529 232.668 110.78 232.4C110.881 232.343 110.983 232.285 111.085 232.228C111.556 232.165 111.892 231.952 112.387 231.921C113.15 231.872 113.931 231.976 114.638 231.908C116.12 231.765 117.512 231.672 119.151 231.84C120.122 231.94 120.973 231.799 121.93 231.816C121.919 231.816 123.243 232.075 123.273 232.063C123.39 232.017 123.575 231.691 123.651 231.676C123.624 231.363 123.718 231.222 123.934 231.252C124.108 231.215 124.222 231.305 124.277 231.524C124.226 231.53 124.69 231.765 124.723 231.77C124.749 231.774 125.945 231.633 126.029 231.601C126.372 231.473 126.518 231.099 126.792 231.043C127.116 230.977 127.309 231.335 127.59 231.32C128.209 231.286 128.136 231.01 128.612 230.924C130.283 230.623 132.329 231.015 134.055 231.017C135.775 231.02 137.485 230.863 139.141 230.79C141.177 230.701 143.171 231.087 145.223 230.813C147.174 230.551 149.126 230.438 151.091 230.355C155.199 230.182 159.415 230.365 163.485 229.882C167.723 229.379 172.032 229.882 176.277 229.806C180.752 229.726 185.251 229.686 189.725 229.502C194.178 229.32 198.612 228.79 203.048 228.683C204.176 228.656 205.284 228.387 206.408 228.305C207.437 228.231 208.449 228.394 209.487 228.303C211.376 228.138 213.095 228.265 214.994 228.236C217.117 228.203 219.18 227.879 221.293 227.749C223.428 227.618 225.543 227.919 227.661 227.498C228.818 227.267 230.978 225.682 229.501 224.353Z" fill="#212121"/>
<path fill-rule="evenodd" clip-rule="evenodd" d="M145.656 35.4406C145.653 35.4406 145.65 35.4409 145.648 35.4406C145.637 35.4529 145.626 35.4662 145.615 35.4778L145.656 35.4406Z" fill="#212121"/>
<path fill-rule="evenodd" clip-rule="evenodd" d="M163.343 25.6616C163.611 24.729 162.932 24.0611 162.477 23.3368C162.209 24.9801 161.386 24.909 163.343 25.6616Z" fill="#212121"/>
<path fill-rule="evenodd" clip-rule="evenodd" d="M114.072 60.6727C114.079 60.6916 114.088 60.7082 114.093 60.7282C114.101 60.6953 114.092 60.6783 114.072 60.6727Z" fill="#212121"/>
<path fill-rule="evenodd" clip-rule="evenodd" d="M106.657 59.4419C106.718 59.5792 106.852 60.5289 106.949 60.5336C107.809 60.5745 106.761 58.9677 106.21 58.8738C105.415 59.3873 106.676 59.4843 106.657 59.4419Z" fill="#212121"/>
<path fill-rule="evenodd" clip-rule="evenodd" d="M106.611 53.892C106.554 53.1663 106.31 53.0743 105.615 53.4271C105.823 53.8834 106.07 53.8178 106.611 53.892Z" fill="#212121"/>
<path fill-rule="evenodd" clip-rule="evenodd" d="M96.9796 36.1237C97.3118 36.1791 97.6442 36.2345 97.976 36.2895C97.7811 35.847 97.5858 35.4038 97.3908 34.961C97.2537 35.3488 97.1168 35.7363 96.9796 36.1237Z" fill="#212121"/>
<path fill-rule="evenodd" clip-rule="evenodd" d="M103.796 181.923C103.796 181.922 103.797 181.921 103.797 181.921C103.774 181.93 103.771 181.932 103.796 181.923Z" fill="#212121"/>
<path fill-rule="evenodd" clip-rule="evenodd" d="M36.0394 91.4709C36.7428 90.2947 38.0766 88.8418 39.595 89.3306C41.0135 89.7878 41.4061 91.6472 42.0174 92.8168C43.2065 95.0909 43.5768 92.6492 43.8402 91.269C43.6255 88.5048 42.5501 84.0054 38.9119 84.4822C36.1447 84.8453 33.7552 89.2905 34.2821 91.9187C34.7247 94.1281 35.4721 92.4196 36.0394 91.4709Z" fill="#212121"/>
<path fill-rule="evenodd" clip-rule="evenodd" d="M140.908 39.3739C139.55 38.8889 139.551 40.3572 139.499 41.4607C139.451 42.4747 139.608 44.8532 140.887 45.2154C142.162 45.5767 142.283 43.4761 142.48 42.6267C142.183 41.6186 142.019 39.7703 140.908 39.3739Z" fill="#212121"/>
<path fill-rule="evenodd" clip-rule="evenodd" d="M142.48 37.1709C141.483 36.2894 140.817 36.0194 139.543 36.5888C138.888 36.8817 137.951 37.5191 137.849 38.3228C137.528 40.8242 141.602 37.6842 142.48 37.1709Z" fill="#212121"/>
<path fill-rule="evenodd" clip-rule="evenodd" d="M142.688 52.1558C145.012 52.7563 145.161 49.5796 142.576 49.5744C140.847 49.571 141.39 51.8207 142.688 52.1558Z" fill="#212121"/>
<path fill-rule="evenodd" clip-rule="evenodd" d="M124.922 42.2805C124.054 42.4073 123.748 42.9517 123.934 43.8205C124.148 44.8228 124.692 44.8311 125.665 44.9247C128.009 44.932 126.479 42.0531 124.922 42.2805Z" fill="#212121"/>
<path fill-rule="evenodd" clip-rule="evenodd" d="M145.501 36.9011C145.716 37.4961 146.881 37.7648 147.49 37.5379C148.214 37.268 148.365 36.6121 147.711 36.0097C147.151 35.4938 146.379 35.6298 145.678 35.6777C145.702 35.9029 145.367 36.531 145.501 36.9011Z" fill="#212121"/>
<path fill-rule="evenodd" clip-rule="evenodd" d="M72.589 104.707C73.6974 104.705 72.6515 102.83 71.7384 102.714C71.7576 103.294 71.7195 104.708 72.589 104.707Z" fill="#212121"/>
</svg>
